<?xml version="1.0" encoding="UTF-8"?>
<svg xmlns="http://www.w3.org/2000/svg" width="1024" height="1024" viewBox="0 0 1024 1024" preserveAspectRatio="xMidYMid meet">
 <g id="centerline-shapes">
  <path id="path-1" d="M435.725 485.074L433.271 481.915L430.817 478.757L428.362 475.598L425.908 472.439L423.454 469.281L421.000 466.122L418.546 462.963L416.092 459.805L413.637 456.646L411.183 453.487L408.729 450.329L406.275 447.170L403.821 444.012L401.366 440.853L398.912 437.694L396.458 434.536L394.004 431.377L391.550 428.218L389.096 425.060L386.641 421.901L384.187 418.742L381.733 415.584L379.279 412.425L376.825 409.266L374.371 406.108L371.916 402.949L369.462 399.790L367.008 396.632L364.554 393.473L362.100 390.315L359.646 387.156L357.191 383.997L354.737 380.839L352.283 377.680L349.829 374.521L347.375 371.363L344.921 368.204L342.466 365.045L340.012 361.887L337.558 358.728L335.119 355.558L332.756 352.334L330.469 349.054L328.242 345.732L326.016 342.409L323.789 339.086L321.562 335.763L319.335 332.441L317.108 329.118L314.881 325.795L312.654 322.472L310.427 319.149L308.200 315.827L305.973 312.504L303.968 309.067L302.236 305.490L300.775 301.772L299.365 298.029L297.955 294.286L296.544 290.543L295.134 286.800L293.724 283.057L292.314 279.313L290.903 275.570L289.493 271.827L288.083 268.084L286.673 264.341L285.318 260.587L284.402 256.748L283.926 252.823L283.833 248.824L283.740 244.825L283.647 240.826L283.554 236.828L283.461 232.829L283.368 228.830L283.276 224.831L283.183 220.832L283.090 216.833L282.997 212.834L282.904 208.835L282.848 204.839L283.085 200.869L283.616 196.925L284.403 193.003L285.190 189.082L285.978 185.160L286.765 181.238L287.599 177.331L288.708 173.511L290.090 169.777L291.700 166.116L293.310 162.454L294.920 158.792L296.530 155.131L298.140 151.469L299.750 147.807L301.360 144.146L302.970 140.484L304.739 136.916L306.782 133.510L309.098 130.266L311.530 127.090L313.961 123.914L316.392 120.738L318.824 117.561L321.255 114.385L323.687 111.209L326.136 108.050L328.758 105.047L331.551 102.202L334.498 99.497L337.445 96.793L340.393 94.088L343.340 91.384L346.310 88.709L349.415 86.208L352.654 83.880L356.005 81.696L359.356 79.511L362.707 77.327L366.058 75.142L369.409 72.958L372.844 70.929L376.383 69.094L380.028 67.454L383.693 65.853L387.359 64.251L391.024 62.650L394.689 61.049L398.355 59.447L402.020 57.846L405.716 56.340L409.497 55.105L413.363 54.142L417.285 53.356L421.207 52.569L425.129 51.783L429.051 50.996L432.973 50.210L436.895 49.423L440.817 48.637L444.760 48.086L448.730 47.814L452.726 47.820L456.726 47.868L460.725 47.917L464.725 47.966L468.725 48.014L472.724 48.063L476.724 48.112L480.724 48.161L484.709 48.339L488.666 48.777L492.594 49.473L496.508 50.300L500.421 51.126L504.335 51.952L508.249 52.778L512.163 53.605L516.063 54.473L519.883 55.595L523.622 56.969L527.294 58.556L530.966 60.142L534.638 61.728L538.311 63.314L541.983 64.900L545.655 66.486L549.327 68.072L552.924 69.792L556.391 71.746L559.728 73.934L563.009 76.222L566.290 78.510L569.571 80.798L572.852 83.086L576.133 85.374L579.414 87.662L582.695 89.950L585.885 92.342L588.885 94.952L591.695 97.780L594.406 100.721L597.118 103.662L599.829 106.603L602.540 109.544L605.250 112.486L607.797 115.556L610.182 118.754L612.404 122.080L614.626 125.406L616.848 128.732L619.070 132.058L621.292 135.384L623.397 138.772L625.257 142.289L626.874 145.934L628.364 149.646L629.855 153.358L631.345 157.070L632.836 160.782L634.326 164.494L635.817 168.206L637.307 171.918L638.798 175.630L640.026 179.416L640.978 183.279L641.654 187.220L642.317 191.165L642.980 195.109L643.643 199.054L644.182 203.008L644.487 206.981L644.557 210.972L644.516 214.972L644.475 218.972L644.434 222.972L644.393 226.971L644.353 230.971L644.312 234.971L644.139 238.961L643.801 242.939L643.298 246.906L642.762 250.870L642.225 254.833L641.689 258.797L640.947 262.709L639.908 266.544L638.570 270.303L637.139 274.039L635.708 277.774L634.278 281.509L632.847 285.245L631.416 288.980L629.806 292.625L627.959 296.151L625.874 299.558L623.732 302.936L621.589 306.314L619.447 309.692L617.304 313.070L615.162 316.448L613.019 319.825L610.877 323.203L608.734 326.581L606.592 329.959L604.281 333.201L601.739 336.259L598.968 339.133L596.136 341.958L593.304 344.782L590.472 347.607L587.640 350.432L584.808 353.257L581.975 356.081L579.143 358.906L576.311 361.731L573.479 364.555L570.647 367.380L567.815 370.205L564.983 373.029L562.150 375.854L559.318 378.679L556.486 381.504L553.654 384.328L550.822 387.153L547.969 389.956L545.051 392.688L542.067 395.348L539.037 397.960L536.007 400.571L532.977 403.183L529.947 405.794L526.917 408.405L523.887 411.017L520.857 413.628L517.827 416.240L514.797 418.851L511.767 421.462L508.737 424.074L505.707 426.685L502.677 429.296L499.648 431.908L496.618 434.519L493.588 437.131L490.558 439.742L487.528 442.353L484.498 444.965L481.468 447.576L478.438 450.188L475.408 452.799L472.378 455.410L469.348 458.022L466.318 460.633L463.288 463.245L460.258 465.856L457.228 468.467L454.198 471.079L451.168 473.690L448.138 476.302L445.108 478.913L442.078 481.524L439.048 484.136L436.853 486.028L435.493 487.200" stroke="#000000" stroke-width="71" fill="none" stroke-linecap="round" stroke-linejoin="round" />
  <path id="path-2" d="M713.900 843.602L711.399 846.724L708.898 849.846L706.397 852.967L703.896 856.089L701.395 859.211L698.894 862.333L696.393 865.454L693.892 868.576L691.391 871.698L688.890 874.820L686.389 877.942L683.730 880.903L680.854 883.647L677.764 886.173L674.617 888.643L671.471 891.112L668.324 893.582L665.178 896.051L662.031 898.521L658.884 900.990L655.738 903.460L652.591 905.929L649.444 908.399L646.298 910.868L643.151 913.338L640.004 915.807L636.858 918.277L633.711 920.746L630.564 923.216L627.418 925.685L624.194 928.037L620.841 930.189L617.359 932.141L613.823 934.011L610.287 935.880L606.751 937.750L603.214 939.620L599.678 941.490L596.142 943.360L592.606 945.230L589.070 947.100L585.534 948.970L581.998 950.840L578.445 952.671L574.818 954.336L571.117 955.834L567.358 957.202L563.600 958.571L559.841 959.939L556.083 961.308L552.324 962.676L548.565 964.045L544.807 965.413L541.048 966.782L537.266 968.063L533.424 969.122L529.522 969.957L525.584 970.656L521.646 971.356L517.701 972.005L513.740 972.535L509.764 972.946L505.778 973.287L501.793 973.628L497.807 973.969L493.822 974.310L489.836 974.651L485.851 974.992L481.864 975.290L477.871 975.487L473.874 975.582L469.874 975.619L465.875 975.655L461.875 975.692L457.875 975.729L453.875 975.765L449.875 975.802L445.875 975.839L441.876 975.875L437.876 975.912L433.876 975.949L429.876 975.985L425.876 976.022L421.876 976.059L417.877 976.095L413.877 976.132L409.877 976.168L405.877 976.205L401.877 976.242L397.877 976.278L393.878 976.315L389.878 976.352L385.878 976.388L381.878 976.425L377.878 976.462L373.879 976.477L369.888 976.342L365.903 976.056L361.925 975.639L357.947 975.223L353.968 974.807L349.990 974.391L346.012 973.974L342.034 973.558L338.055 973.142L334.077 972.725L330.115 972.240L326.223 971.443L322.403 970.335L318.638 968.984L314.873 967.633L311.108 966.282L307.343 964.931L303.578 963.580L299.813 962.230L296.110 960.738L292.482 959.076L288.929 957.243L285.390 955.379L281.850 953.516L278.311 951.652L274.772 949.788L271.247 947.902L267.833 945.839L264.531 943.600L261.327 941.205L258.123 938.811L254.918 936.416L251.714 934.022L248.639 931.486L245.735 928.761L243.002 925.847L240.312 922.887L237.622 919.927L234.931 916.967L232.241 914.007L229.550 911.047L226.860 908.087L224.180 905.119L221.741 901.978L219.542 898.662L217.573 895.181L215.603 891.699L213.633 888.218L211.664 884.736L209.694 881.255L207.725 877.773L205.755 874.292L203.786 870.810L201.816 867.328L200.052 863.760L198.572 860.073L197.374 856.265L196.256 852.425L195.137 848.585L194.018 844.744L192.899 840.904L191.780 837.064L190.661 833.223L189.543 829.383L188.424 825.543L187.305 821.702L186.427 817.819L185.830 813.885L185.513 809.902L185.235 805.912L184.957 801.921L184.679 797.931L184.401 793.941L184.123 789.950L183.846 785.960L183.696 781.969L183.718 777.977L183.909 773.984L184.142 769.991L184.375 765.998L184.608 762.004L184.841 758.011L185.137 754.027L185.635 750.069L186.334 746.139L187.172 742.228L188.009 738.317L188.847 734.405L189.785 730.527L190.987 726.734L192.453 723.028L194.083 719.375L195.714 715.723L197.344 712.070L198.974 708.417L200.604 704.764L202.235 701.112L204.079 697.587L206.199 694.229L208.595 691.036L211.054 687.881L213.513 684.726L215.971 681.571L218.430 678.416L220.889 675.261L223.347 672.106L225.806 668.950L228.291 665.819L230.928 662.827L233.717 659.973L236.632 657.233L239.546 654.493L242.461 651.754L245.375 649.014L248.289 646.274L251.204 643.534L254.118 640.795L257.033 638.055L259.960 635.330L262.936 632.660L265.961 630.043L269.020 627.466L272.078 624.889L275.137 622.311L278.196 619.734L281.255 617.156L284.314 614.579L287.373 612.002L290.432 609.424L293.491 606.847L296.550 604.269L299.609 601.692L302.668 599.115L305.727 596.537L308.786 593.960L311.845 591.383L314.904 588.805L317.963 586.228L321.022 583.650L324.080 581.073L327.139 578.496L330.198 575.918L333.257 573.341L336.316 570.764L339.375 568.186L342.434 565.609L345.493 563.031L348.552 560.454L351.611 557.877L354.670 555.299L357.729 552.722L360.788 550.145L363.847 547.567L366.906 544.990L369.965 542.412L373.024 539.835L376.082 537.258L379.141 534.680L382.200 532.103L385.259 529.526L388.318 526.948L391.377 524.371L394.436 521.793L397.495 519.216L400.554 516.639L403.613 514.061L406.672 511.484L409.731 508.906L412.790 506.329L415.849 503.752L418.908 501.174L421.967 498.597L425.026 496.020L428.084 493.442L431.143 490.865L433.613 488.784L435.493 487.200" stroke="#000000" stroke-width="71" fill="none" stroke-linecap="round" stroke-linejoin="round" />
  <path id="path-3" d="M435.725 485.074L438.194 488.221L440.664 491.367L443.133 494.514L445.602 497.661L448.072 500.808L450.541 503.955L453.010 507.101L455.480 510.248L457.949 513.395L460.419 516.542L462.888 519.689L465.357 522.835L467.827 525.982L470.296 529.129L472.765 532.276L475.235 535.422L477.704 538.569L480.173 541.716L482.643 544.863L485.112 548.010L487.581 551.156L490.051 554.303L492.520 557.450L494.990 560.597L497.459 563.744L499.928 566.890L502.398 570.037L504.867 573.184L507.336 576.331L509.806 579.477L512.275 582.624L514.744 585.771L517.214 588.918L519.683 592.065L522.153 595.211L524.622 598.358L527.091 601.505L529.561 604.652L532.030 607.799L534.499 610.945L536.969 614.092L539.438 617.239L541.907 620.386L544.377 623.532L546.846 626.679L549.315 629.826L551.785 632.973L554.254 636.120L556.724 639.266L559.193 642.413L561.662 645.560L564.132 648.707L566.601 651.854L569.070 655.000L571.540 658.147L574.009 661.294L576.478 664.441L578.948 667.587L581.417 670.734L583.887 673.881L586.356 677.028L588.825 680.175L591.295 683.321L593.764 686.468L596.233 689.615L598.703 692.762L601.172 695.909L603.641 699.055L606.111 702.202L608.580 705.349L611.050 708.496L613.519 711.642L615.988 714.789L618.458 717.936L620.927 721.083L623.396 724.230L625.866 727.376L628.335 730.523L630.804 733.670L633.274 736.817L635.743 739.964L638.212 743.110L640.682 746.257L643.151 749.404L645.621 752.551L648.090 755.697L650.559 758.844L653.029 761.991L655.498 765.138L657.967 768.285L660.437 771.431L662.906 774.578L665.375 777.725L667.845 780.872L670.314 784.018L672.784 787.165L675.253 790.312L677.722 793.459L680.192 796.606L682.661 799.752L685.130 802.899L687.600 806.046L690.069 809.193L692.538 812.340L695.008 815.486L697.477 818.633L699.947 821.780L702.416 824.927L704.885 828.073L707.355 831.220L709.824 834.367L712.293 837.514L714.456 840.269L716.311 842.633" stroke="#000000" stroke-width="71" fill="none" stroke-linecap="round" stroke-linejoin="round" />
  <path id="path-4" d="M713.900 843.602L716.345 840.437L718.790 837.271L721.236 834.106L723.681 830.940L726.127 827.775L728.572 824.610L731.017 821.444L733.463 818.279L735.908 815.113L738.311 811.918L740.592 808.640L742.751 805.278L744.833 801.862L746.914 798.446L748.996 795.030L751.077 791.615L753.159 788.199L755.240 784.783L757.321 781.367L759.403 777.951L761.484 774.536L763.566 771.120L765.647 767.704L767.728 764.288L769.810 760.872L771.891 757.457L773.973 754.041L776.054 750.625L778.136 747.209L780.217 743.793L782.298 740.378L784.380 736.962L786.461 733.546L788.543 730.130L790.624 726.714L792.706 723.299L794.787 719.883L796.686 716.378L798.357 712.763L799.801 709.038L801.199 705.290L802.598 701.543L803.997 697.795L805.396 694.048L806.795 690.300L808.194 686.553L809.593 682.806L810.991 679.058L812.390 675.311L813.789 671.563L815.188 667.816L816.587 664.068L817.986 660.321L819.385 656.574L820.784 652.826L822.182 649.079L823.573 645.329L824.753 641.520L825.723 637.651L826.491 633.726L827.258 629.800L828.026 625.874L828.794 621.949L829.562 618.023L830.329 614.097L831.097 610.172L831.865 606.246L832.632 602.321L833.400 598.395L834.168 594.469L834.936 590.544L835.703 586.618L836.471 582.692L837.239 578.767L838.006 574.841L838.774 570.915L839.542 566.990L840.120 564.034L840.508 562.048" stroke="#000000" stroke-width="71" fill="none" stroke-linecap="round" stroke-linejoin="round" />
  <path id="path-5" d="M716.311 842.633L718.831 845.740L721.351 848.846L723.871 851.952L726.391 855.059L728.911 858.165L731.431 861.271L733.951 864.378L736.472 867.484L738.992 870.590L741.512 873.696L744.032 876.803L746.552 879.909L749.072 883.015L751.592 886.122L754.112 889.228L756.632 892.334L759.152 895.441L761.673 898.547L764.193 901.653L766.713 904.759L769.233 907.866L771.753 910.972L774.273 914.078L776.793 917.185L779.313 920.291L781.833 923.397L784.353 926.504L786.873 929.610L789.394 932.716L791.914 935.822L794.434 938.929L796.954 942.035L799.474 945.141L801.994 948.248L804.514 951.354L807.034 954.460L809.554 957.567L812.074 960.673L814.595 963.779L817.115 966.885L819.230 969.493L820.942 971.603" stroke="#000000" stroke-width="71" fill="none" stroke-linecap="round" stroke-linejoin="round" />
 </g>
</svg>
