<?xml version="1.0" encoding="UTF-8"?>
<svg xmlns="http://www.w3.org/2000/svg" width="1024" height="1024" viewBox="0 0 1024 1024" preserveAspectRatio="xMidYMid meet">
 <g id="centerline-shapes">
  <path id="path-1" d="M596.063 593.604L598.131 597.028L600.199 600.452L602.267 603.876L604.335 607.300L606.403 610.724L608.471 614.148L610.539 617.572L612.607 620.996L614.675 624.420L616.743 627.844L618.811 631.268L620.879 634.692L622.947 638.116L625.015 641.540L627.083 644.964L629.151 648.388L631.219 651.812L633.287 655.235L635.355 658.659L637.423 662.083L639.491 665.507L641.559 668.931L643.627 672.355L645.695 675.779L647.763 679.203L649.831 682.627L651.899 686.051L653.967 689.475L656.035 692.899L658.103 696.323L660.171 699.747L662.239 703.171L664.307 706.595L666.375 710.019L668.443 713.443L670.511 716.866L672.579 720.290L674.647 723.714L676.715 727.138L678.783 730.562L680.851 733.986L682.919 737.410L684.987 740.834L687.055 744.258L689.123 747.682L691.191 751.106L693.259 754.530L695.327 757.954L697.395 761.378L699.463 764.802L701.531 768.226L703.599 771.650L705.667 775.074L707.735 778.497L709.803 781.921L711.871 785.345L713.939 788.769L716.007 792.193L718.075 795.617L720.143 799.041L722.211 802.465L724.279 805.889L726.347 809.313L728.415 812.737L730.483 816.161L732.551 819.585L734.491 823.076L736.301 826.637L737.979 830.268L739.654 833.900L741.329 837.533L743.004 841.165L744.679 844.798L746.354 848.430L748.028 852.063L749.703 855.695L751.378 859.328L753.053 862.960L754.198 866.708L754.782 870.579L754.124 874.376L752.729 877.976L750.374 881.162L747.728 884.120L744.813 886.856L741.885 889.581L738.957 892.307L736.029 895.032L733.044 897.682L729.896 900.116L726.583 902.333L723.164 904.409L719.745 906.484L716.326 908.560L712.907 910.636L709.487 912.712L706.068 914.788L702.649 916.864L699.230 918.939L695.811 921.015L692.391 923.091L688.972 925.167L685.553 927.243L682.134 929.319L678.715 931.394L675.295 933.470L671.876 935.546L668.457 937.622L665.038 939.698L661.619 941.774L658.199 943.849L654.772 945.910L651.292 947.875L647.758 949.745L644.181 951.534L640.603 953.323L637.025 955.112L633.448 956.901L629.870 958.690L626.292 960.478L622.715 962.267L619.104 963.973L615.411 965.474L611.636 966.772L607.813 967.948L604.000 969.065L600.406 968.977L597.030 967.683L593.861 965.242L590.692 962.800L587.524 960.359L584.355 957.918L581.505 955.191L579.018 952.139L576.895 948.762L574.816 945.344L572.737 941.927L570.658 938.510L568.579 935.093L566.500 931.675L564.421 928.258L562.342 924.841L560.263 921.423L558.184 918.006L556.105 914.589L554.026 911.172L551.947 907.754L549.868 904.337L547.789 900.920L545.710 897.502L543.631 894.085L541.552 890.668L539.473 887.251L537.394 883.833L535.315 880.416L533.236 876.999L531.157 873.581L529.078 870.164L526.999 866.747L524.920 863.330L522.841 859.912L520.762 856.495L518.683 853.078L516.604 849.660L514.525 846.243L512.446 842.826L510.367 839.409L508.288 835.991L506.209 832.574L504.130 829.157L502.051 825.739L499.972 822.322L497.893 818.905L495.814 815.488L493.736 812.070L491.657 808.653L489.578 805.236L487.499 801.818L485.420 798.401L483.341 794.984L481.262 791.567L479.183 788.149L477.104 784.732L475.025 781.315L472.946 777.897L470.867 774.480L468.788 771.063L466.709 767.646L464.630 764.228L462.551 760.811L460.472 757.394L458.393 753.976L456.314 750.559L454.235 747.142L452.156 743.725L450.077 740.307L447.998 736.890L445.919 733.473L443.840 730.055L441.761 726.638L439.682 723.221L437.603 719.804L435.524 716.386L433.445 712.969L431.366 709.552L429.287 706.134L427.208 702.717L425.129 699.300L423.050 695.883L420.971 692.465L418.892 689.048L416.813 685.631L414.734 682.213L412.655 678.796L410.576 675.379L409.077 672.914L408.156 671.401" stroke="#000000" stroke-width="70" fill="none" stroke-linecap="round" stroke-linejoin="round" />
  <path id="path-2" d="M188.240 841.233L188.240 837.233L188.240 833.233L188.240 829.233L188.240 825.233L188.240 821.233L188.240 817.233L188.240 813.233L188.240 809.233L188.240 805.233L188.240 801.233L188.240 797.233L188.240 793.233L188.240 789.233L188.240 785.233L188.240 781.233L188.240 777.233L188.240 773.233L188.240 769.233L188.240 765.233L188.240 761.233L188.240 757.233L188.240 753.233L188.240 749.233L188.240 745.233L188.240 741.233L188.240 737.233L188.240 733.233L188.240 729.233L188.240 725.233L188.240 721.233L188.240 717.233L188.240 713.233L188.240 709.233L188.240 705.233L188.240 701.233L188.240 697.233L188.240 693.233L188.240 689.233L188.240 685.233L188.240 681.233L188.240 677.233L188.240 673.233L188.240 669.233L188.240 665.233L188.240 661.233L188.240 657.233L188.240 653.233L188.240 649.233L188.240 645.233L188.240 641.233L188.240 637.233L188.240 633.233L188.240 629.233L188.240 625.233L188.240 621.233L188.240 617.233L188.240 613.233L188.240 609.233L188.240 605.233L188.240 601.233L188.240 597.233L188.240 593.233L188.240 589.233L188.240 585.233L188.240 581.233L188.240 577.233L188.240 573.233L188.240 569.233L188.240 565.233L188.240 561.233L188.240 557.233L188.240 553.233L188.240 549.233L188.240 545.233L188.240 541.233L188.240 537.233L188.240 533.233L188.240 529.233L188.240 525.233L188.240 521.233L188.240 517.233L188.240 513.233L188.240 509.233L188.240 505.233L188.240 501.233L188.240 497.233L188.240 493.233L188.240 489.233L188.240 485.233L188.240 481.233L188.240 477.233L188.240 473.233L188.240 469.233L188.240 465.233L188.240 461.233L188.240 457.233L188.240 453.233L188.240 449.233L188.240 445.233L188.240 441.233L188.240 437.233L188.240 433.233L188.240 429.233L188.240 425.233L188.240 421.233L188.240 417.233L188.240 413.233L188.240 409.233L188.240 405.233L188.240 401.233L188.240 397.233L188.240 393.233L188.240 389.233L188.240 385.233L188.240 381.233L188.240 377.233L188.240 373.233L188.240 369.233L188.240 365.233L188.240 361.233L188.240 357.233L188.240 353.233L188.240 349.233L188.240 345.233L188.240 341.233L188.240 337.233L188.240 333.233L188.240 329.233L188.240 325.233L188.240 321.233L188.240 317.233L188.240 313.233L188.240 309.233L188.240 305.233L188.240 301.233L188.240 297.233L188.240 293.233L188.240 289.233L188.240 285.233L188.240 281.233L188.240 277.233L188.240 273.233L188.240 269.233L188.240 265.233L188.240 261.233L188.240 257.233L188.240 253.233L188.240 249.233L188.240 245.233L188.240 241.233L188.240 237.233L188.240 233.233L188.240 229.233L188.240 225.233L188.240 221.233L188.240 217.233L188.240 213.233L188.240 209.233L188.240 205.233L188.240 201.233L188.240 197.233L188.240 193.233L188.240 189.233L188.240 185.233L188.240 181.233L188.240 177.233L188.240 173.233L188.240 169.233L188.240 165.233L188.240 161.233L188.240 157.233L188.240 153.233L188.240 149.233L188.240 145.233L188.240 141.233L188.240 137.233L188.240 133.233L188.240 129.233L188.240 125.233L188.240 121.233L188.240 117.233L188.240 113.233L188.240 109.233L188.240 105.233L188.240 101.233L188.240 97.233L188.240 93.233L188.240 89.233L188.240 85.233L188.240 81.233L188.240 77.233L188.240 73.233L188.240 69.233L188.240 65.233L188.240 61.233L188.240 57.681L188.240 54.576" stroke="#000000" stroke-width="70" fill="none" stroke-linecap="round" stroke-linejoin="round" />
  <path id="path-3" d="M191.967 54.576L195.618 56.211L199.269 57.846L202.919 59.481L206.570 61.116L210.221 62.751L213.871 64.386L217.522 66.020L221.173 67.655L224.823 69.290L228.474 70.925L232.124 72.560L235.775 74.195L239.370 75.936L242.887 77.825L246.326 79.863L249.743 81.942L253.160 84.021L256.577 86.101L259.994 88.180L263.411 90.259L266.828 92.339L270.246 94.418L273.663 96.497L277.080 98.577L280.486 100.674L283.868 102.807L287.228 104.978L290.575 107.168L293.922 109.359L297.269 111.549L300.616 113.739L303.963 115.929L307.310 118.119L310.657 120.310L314.004 122.500L317.351 124.690L320.699 126.880L324.046 129.070L327.393 131.261L330.740 133.451L334.087 135.641L337.434 137.831L340.781 140.021L344.128 142.211L347.475 144.402L350.822 146.592L354.170 148.782L357.517 150.972L360.864 153.162L364.211 155.353L367.558 157.543L370.905 159.733L374.252 161.923L377.599 164.113L380.946 166.303L384.293 168.494L387.641 170.684L390.988 172.874L394.335 175.064L397.682 177.254L401.029 179.445L404.376 181.635L407.723 183.825L411.070 186.015L414.417 188.205L417.764 190.396L421.112 192.586L424.459 194.776L427.806 196.966L431.153 199.156L434.500 201.346L437.847 203.537L441.194 205.727L444.541 207.917L447.888 210.107L451.235 212.297L454.583 214.488L457.930 216.678L461.277 218.868L464.624 221.058L467.971 223.248L471.318 225.439L474.665 227.629L478.012 229.819L481.359 232.009L484.707 234.199L488.054 236.389L491.401 238.580L494.748 240.770L498.095 242.960L501.442 245.150L504.789 247.340L508.136 249.531L511.483 251.721L514.830 253.911L518.178 256.101L521.525 258.291L524.872 260.482L528.219 262.672L531.566 264.862L534.913 267.052L538.260 269.242L541.607 271.432L544.954 273.623L548.301 275.813L551.649 278.003L554.996 280.193L558.343 282.383L561.690 284.574L565.037 286.764L568.384 288.954L571.731 291.144L575.078 293.334L578.425 295.525L581.772 297.715L585.120 299.905L588.467 302.095L591.814 304.285L595.161 306.475L598.508 308.666L601.855 310.856L605.202 313.046L608.549 315.236L611.896 317.426L615.243 319.617L618.591 321.807L621.938 323.997L625.285 326.187L628.632 328.377L631.979 330.567L635.326 332.758L638.673 334.948L642.020 337.138L645.367 339.328L648.714 341.518L652.062 343.709L655.409 345.899L658.756 348.089L662.103 350.279L665.450 352.469L668.797 354.660L672.144 356.850L675.491 359.040L678.838 361.230L682.185 363.420L685.533 365.610L688.880 367.801L692.227 369.991L695.574 372.181L698.921 374.371L702.268 376.561L705.615 378.752L708.962 380.942L712.309 383.132L715.656 385.322L719.004 387.512L722.351 389.703L725.698 391.893L729.045 394.083L732.392 396.273L735.739 398.463L739.086 400.653L742.433 402.844L745.780 405.034L749.127 407.224L752.475 409.414L755.822 411.604L759.169 413.795L762.516 415.985L765.863 418.175L769.210 420.365L772.557 422.555L775.904 424.746L779.251 426.936L782.593 429.134L785.878 431.411L789.108 433.768L792.288 436.194L795.468 438.621L798.648 441.047L801.828 443.474L805.007 445.900L808.187 448.327L811.367 450.753L814.547 453.180L817.727 455.606L820.907 458.033L824.087 460.460L827.267 462.886L830.447 465.313L832.936 467.213L834.736 468.586" stroke="#000000" stroke-width="70" fill="none" stroke-linecap="round" stroke-linejoin="round" />
  <path id="path-4" d="M834.736 468.586L831.026 470.080L827.315 471.574L823.605 473.069L819.894 474.563L816.184 476.057L812.474 477.551L808.763 479.046L805.053 480.540L801.342 482.034L797.632 483.529L793.922 485.023L790.211 486.517L786.501 488.011L782.790 489.506L779.080 491.000L775.369 492.494L771.659 493.989L767.949 495.483L764.238 496.977L760.528 498.471L756.817 499.966L753.107 501.460L749.397 502.954L745.686 504.449L741.976 505.943L738.265 507.437L734.555 508.931L730.845 510.426L727.134 511.920L723.424 513.414L719.713 514.909L716.003 516.403L712.293 517.897L708.582 519.391L704.872 520.886L701.161 522.380L697.451 523.874L693.741 525.369L690.030 526.863L686.320 528.357L682.609 529.851L678.899 531.346L675.189 532.840L671.478 534.334L667.768 535.829L664.057 537.323L660.347 538.817L656.636 540.311L652.926 541.806L649.216 543.300L645.505 544.794L641.795 546.288L638.084 547.783L634.374 549.277L630.664 550.771L626.953 552.266L623.243 553.760L619.532 555.254L615.897 556.897L612.368 558.748L608.945 560.807L605.552 562.925L602.287 565.161L599.543 567.877L597.399 571.090L596.282 574.814L595.798 578.684L595.869 582.683L595.940 586.683L596.005 590.323L596.063 593.604" stroke="#000000" stroke-width="70" fill="none" stroke-linecap="round" stroke-linejoin="round" />
  <path id="path-5" d="M408.156 671.401L405.091 673.970L402.025 676.540L398.960 679.109L395.894 681.679L392.828 684.249L389.763 686.818L386.697 689.388L383.632 691.957L380.566 694.527L377.501 697.096L374.435 699.666L371.370 702.235L368.304 704.805L365.239 707.374L362.173 709.944L359.107 712.513L356.042 715.083L352.976 717.652L349.911 720.222L346.845 722.791L343.780 725.361L340.714 727.930L337.649 730.500L334.583 733.069L331.518 735.639L328.452 738.209L325.387 740.778L322.321 743.348L319.255 745.917L316.190 748.487L313.124 751.056L310.059 753.626L306.993 756.195L303.928 758.765L300.862 761.334L297.797 763.904L294.731 766.473L291.666 769.043L288.600 771.612L285.534 774.182L282.469 776.751L279.403 779.321L276.338 781.890L273.272 784.460L270.207 787.029L267.141 789.599L264.076 792.169L261.010 794.738L257.945 797.308L254.879 799.877L251.813 802.447L248.748 805.016L245.682 807.586L242.538 810.045L239.276 812.341L235.898 814.475L232.482 816.555L229.065 818.636L225.649 820.717L222.233 822.798L218.817 824.878L215.401 826.959L211.984 829.040L208.568 831.121L205.152 833.201L201.736 835.282L198.319 837.363L195.062 839.347L191.964 841.233" stroke="#000000" stroke-width="70" fill="none" stroke-linecap="round" stroke-linejoin="round" />
 </g>
</svg>
