<?xml version="1.0" encoding="UTF-8"?>
<svg xmlns="http://www.w3.org/2000/svg" width="1024" height="1024" viewBox="0 0 1024 1024" preserveAspectRatio="xMidYMid meet">
 <rect width="1024" height="1024" fill="#ffffff" />
 <g id="centerline-shapes">
  <path id="path-1" d="M986.880 144.745L982.880 144.738L978.880 144.731L974.880 144.724L970.880 144.716L966.880 144.709L962.880 144.702L958.880 144.695L954.880 144.688L950.880 144.680L946.880 144.673L942.880 144.666L938.880 144.659L934.880 144.651L930.880 144.644L926.880 144.637L922.880 144.630L918.880 144.623L914.880 144.615L910.880 144.608L906.880 144.601L902.880 144.594L898.880 144.586L894.880 144.579L890.880 144.572L886.880 144.565L882.880 144.558L878.880 144.550L874.880 144.543L870.880 144.536L866.880 144.529L862.880 144.521L858.880 144.514L854.880 144.507L850.880 144.500L846.880 144.493L842.880 144.485L838.880 144.478L834.880 144.471L830.881 144.464L826.881 144.457L822.881 144.449L818.881 144.442L814.881 144.435L810.881 144.428L806.881 144.420L802.881 144.413L798.881 144.406L794.881 144.399L790.881 144.392L786.881 144.384L782.881 144.377L778.881 144.370L774.881 144.363L770.881 144.355L766.881 144.348L762.881 144.341L758.881 144.334L754.881 144.327L750.881 144.319L746.881 144.312L742.881 144.305L738.881 144.298L734.881 144.290L730.881 144.283L726.881 144.276L722.881 144.269L718.881 144.262L714.881 144.254L710.881 144.247L706.881 144.240L702.881 144.233L698.881 144.225L694.881 144.218L690.881 144.211L686.881 144.204L682.881 144.197L678.881 144.189L674.881 144.182L670.881 144.175L666.881 144.168L662.881 144.160L658.881 144.153L654.881 144.146L650.881 144.139L646.881 144.132L642.881 144.124L638.881 144.117L634.881 144.110L630.881 144.103L626.881 144.095L622.881 144.088L618.881 144.081L614.881 144.074L610.881 144.067L606.881 144.059L602.881 144.052L598.881 144.045L594.881 144.038L590.881 144.030L586.881 144.023L582.881 144.016L578.881 144.009L574.881 144.002L570.881 143.994L566.881 143.987L562.881 143.980L558.881 143.973L554.881 143.966L550.881 143.958L546.881 143.951L542.881 143.944L538.881 143.937L534.881 143.929L530.881 143.922L526.881 143.915L522.881 143.908L518.881 143.901L514.881 143.893L510.881 143.886L506.881 143.879L502.881 143.872L498.881 143.864L494.881 143.857L490.881 143.850L486.881 143.843L482.881 143.836L478.881 143.828L474.881 143.821L470.881 143.814L466.881 143.807L462.881 143.799L458.881 143.792L454.881 143.785L450.881 143.778L446.881 143.771L442.881 143.763L438.881 143.756L434.881 143.749L430.881 143.742L426.881 143.734L422.881 143.727L418.881 143.720L414.881 143.713L410.881 143.706L406.881 143.698L402.881 143.691L398.881 143.684L394.881 143.677L390.881 143.669L386.881 143.662L382.881 143.655L378.881 143.648L374.881 143.641L370.881 143.633L366.881 143.626L362.881 143.619L358.881 143.612L354.881 143.604L350.881 143.597L346.881 143.590L342.881 143.583L338.881 143.576L334.881 143.568L330.881 143.561L326.881 143.554L322.881 143.547L318.881 143.540L314.893 143.679L310.923 144.036L306.970 144.612L303.022 145.260L299.075 145.908L295.128 146.556L291.181 147.204L287.234 147.852L283.287 148.500L279.339 149.148L275.392 149.796L271.590 150.587L268.903 152.480L267.332 155.475L266.734 159.430L266.135 163.385L265.536 167.340L264.937 171.295L264.339 175.250L263.740 179.205L263.141 183.160L262.542 187.115L261.994 191.073L261.643 195.047L261.487 199.036L261.476 203.036L261.466 207.036L261.456 211.036L261.445 215.036L261.435 219.036L261.424 223.036L261.414 227.036L261.404 231.036L261.393 235.036L261.383 239.036L261.372 243.036L261.362 247.036L261.351 251.036L261.341 255.036L261.331 259.036L261.320 263.036L261.310 267.036L261.299 271.036L261.289 275.036L261.279 279.036L261.268 283.036L261.258 287.036L261.247 291.036L261.237 295.036L261.226 299.036L261.216 303.036L261.206 307.036L261.195 311.036L261.185 315.036L261.174 319.036L261.164 323.036L261.154 327.036L261.143 331.036L261.133 335.036L261.122 339.036L261.112 343.036L261.101 347.036L261.091 351.036L261.081 355.036L261.070 359.036L261.060 363.036L261.049 367.036L261.039 371.036L261.029 375.036L261.018 379.036L261.008 383.036L260.997 387.036L260.987 391.036L260.976 395.036L260.966 399.036L260.956 403.035L260.945 407.035L260.935 411.035L260.924 415.035L260.914 419.035L260.904 423.035L260.893 427.035L260.883 431.035L260.872 435.035L260.862 439.035L260.851 443.035L260.841 447.035L260.831 451.035L260.820 455.035L260.810 459.035L260.799 463.035L260.789 467.035L260.779 471.035L260.768 475.035L260.758 479.035L260.747 483.035L260.737 487.035L260.726 491.035L260.716 495.035L260.706 499.035L260.695 503.035L260.685 507.035L260.674 511.035L260.664 515.035L260.654 519.035L260.643 523.035L260.633 527.035L260.622 531.035L260.612 535.035L260.601 539.035L260.591 543.035L260.581 547.035L260.570 551.035L260.560 555.035L260.549 559.035L260.539 563.035L260.529 567.035L260.518 571.035L260.508 575.035L260.497 579.035L260.487 583.035L260.476 587.035L260.466 591.035L260.456 595.035L260.445 599.035L260.435 603.035L260.424 607.035L260.414 611.035L260.404 615.035L260.393 619.035L260.383 623.035L260.372 627.035L260.362 631.035L260.351 635.035L260.341 639.035L260.331 643.035L260.320 647.035L260.310 651.035L260.299 655.035L260.289 659.035L260.279 663.035L260.268 667.035L260.258 671.035L260.247 675.035L260.237 679.035L260.226 683.035L260.216 687.035L260.206 691.035L260.195 695.035L260.185 699.034L260.174 703.034L260.164 707.034L260.154 711.034L260.143 715.034L260.133 719.034L260.122 723.034L260.112 727.034L260.101 731.034L260.091 735.034L260.081 739.034L260.070 743.034L260.060 747.034L260.049 751.034L260.039 755.034L260.029 759.034L260.018 763.034L260.024 767.034L260.095 771.032L260.229 775.029L260.412 779.025L260.594 783.021L260.776 787.017L260.958 791.012L261.140 795.008L261.323 799.004L261.505 803.000L261.687 806.996L261.869 810.992L262.052 814.987L262.234 818.983L262.416 822.979L262.598 826.975L262.780 830.971L262.963 834.967L263.145 838.963L263.327 842.958L263.509 846.954L263.692 850.950L263.874 854.946L264.056 858.942L264.181 861.676L264.248 863.148" stroke="#000000" stroke-width="70" fill="none" stroke-linecap="round" stroke-linejoin="round" />
  <path id="path-2" d="M264.248 863.148L267.706 861.138L271.165 859.128L274.623 857.118L278.082 855.109L281.540 853.099L284.999 851.089L288.457 849.079L291.915 847.070L295.374 845.060L298.832 843.050L302.291 841.040L305.749 839.031L309.208 837.021L312.666 835.011L316.125 833.002L319.518 830.897L322.794 828.623L325.952 826.178L329.060 823.659L332.167 821.140L335.274 818.621L338.381 816.102L341.414 813.501L344.358 810.800L347.214 808.000L350.055 805.185L352.896 802.369L355.737 799.553L358.578 796.737L361.419 793.922L364.261 791.106L367.102 788.290L369.943 785.475L372.784 782.659L375.625 779.843L378.466 777.028L381.307 774.212L384.148 771.396L386.989 768.581L389.831 765.765L392.672 762.949L395.513 760.134L398.354 757.318L401.195 754.502L404.036 751.687L406.877 748.871L409.718 746.055L412.559 743.239L415.401 740.424L418.242 737.608L421.083 734.792L423.924 731.977L426.765 729.161L429.606 726.345L432.447 723.530L435.288 720.714L438.129 717.898L440.971 715.083L443.812 712.267L446.653 709.451L449.494 706.636L452.335 703.820L455.176 701.004L458.017 698.188L460.858 695.373L463.699 692.557L466.541 689.741L469.382 686.926L472.223 684.110L475.064 681.294L477.905 678.479L480.746 675.663L483.587 672.847L486.428 670.032L489.269 667.216L492.111 664.400L494.952 661.585L497.793 658.769L500.634 655.953L502.544 654.060L503.525 653.088" stroke="#000000" stroke-width="70" fill="none" stroke-linecap="round" stroke-linejoin="round" />
  <path id="path-3" d="M36.049 644.243L38.849 647.100L41.649 649.957L44.448 652.814L47.248 655.671L50.048 658.528L52.847 661.384L55.647 664.241L58.447 667.098L61.246 669.955L64.046 672.812L66.846 675.669L69.645 678.526L72.445 681.383L75.245 684.240L78.044 687.097L80.844 689.953L83.644 692.810L86.443 695.667L89.243 698.524L92.043 701.381L94.842 704.238L97.642 707.095L100.442 709.952L103.241 712.809L106.041 715.665L108.841 718.522L111.640 721.379L114.440 724.236L117.240 727.093L120.039 729.950L122.839 732.807L125.639 735.664L128.438 738.521L131.238 741.377L134.038 744.234L136.837 747.091L139.637 749.948L142.437 752.805L145.237 755.662L148.036 758.519L150.836 761.376L153.636 764.233L156.435 767.090L159.235 769.946L162.035 772.803L164.834 775.660L167.634 778.517L170.434 781.374L173.233 784.231L176.033 787.088L178.833 789.945L181.632 792.802L184.432 795.658L187.232 798.515L190.031 801.372L192.831 804.229L195.631 807.086L198.492 809.875L201.460 812.547L204.533 815.102L207.649 817.610L210.766 820.117L213.882 822.624L216.999 825.132L220.115 827.639L223.232 830.147L226.348 832.654L229.465 835.162L232.581 837.669L235.698 840.177L238.814 842.684L241.931 845.192L245.047 847.699L248.164 850.207L251.280 852.714L254.397 855.222L257.513 857.729L260.630 860.236L262.875 862.043L264.248 863.148" stroke="#000000" stroke-width="70" fill="none" stroke-linecap="round" stroke-linejoin="round" />
 </g>
</svg>
