<?xml version="1.0" encoding="UTF-8"?>
<svg xmlns="http://www.w3.org/2000/svg" width="1024" height="1024" viewBox="0 0 1024 1024" preserveAspectRatio="xMidYMid meet">
 <g id="centerline-shapes">
  <path id="path-1" d="M826.252 515.795L822.252 515.795L818.252 515.795L814.252 515.795L810.252 515.795L806.252 515.795L802.252 515.795L798.252 515.795L794.252 515.795L790.252 515.795L786.252 515.795L782.252 515.795L778.252 515.795L774.252 515.795L770.252 515.795L766.252 515.795L762.252 515.795L758.252 515.795L754.252 515.795L750.252 515.795L746.252 515.795L742.252 515.795L738.252 515.795L734.252 515.795L730.252 515.795L726.252 515.795L722.252 515.795L718.252 515.795L714.252 515.795L710.252 515.795L706.252 515.795L702.252 515.795L698.252 515.795L694.252 515.795L690.252 515.795L686.252 515.795L682.252 515.795L678.252 515.795L674.252 515.795L670.252 515.795L666.252 515.795L662.252 515.795L658.252 515.795L654.252 515.795L650.252 515.795L646.252 515.795L642.252 515.795L638.252 515.795L634.252 515.795L630.252 515.795L626.252 515.795L622.252 515.795L618.252 515.795L614.252 515.795L610.252 515.795L606.252 515.795L602.252 515.795L598.252 515.795L594.252 515.795L590.252 515.795L586.252 515.795L582.252 515.795L578.252 515.795L574.252 515.795L570.252 515.795L566.252 515.795L562.252 515.795L558.252 515.795L554.252 515.795L550.252 515.795L546.252 515.795L542.252 515.795L538.252 515.795L534.252 515.795L530.252 515.795L526.252 515.795L522.252 515.795L518.252 515.795L514.252 515.795L510.252 515.795L506.252 515.795L502.252 515.795L498.252 515.795L494.252 515.795L490.252 515.795L486.252 515.795L482.252 515.795L478.252 515.795L474.252 515.795L470.252 515.795L466.252 515.795L462.252 515.795L458.252 515.795L454.252 515.795L450.252 515.795L446.252 515.795L442.252 515.795L438.252 515.795L434.252 515.795L430.252 515.795L426.252 515.795L422.252 515.795L418.252 515.795L414.252 515.795L410.252 515.795L406.252 515.795L402.252 515.795L398.252 515.795L394.252 515.795L390.252 515.795L386.252 515.795L382.252 515.795L378.252 515.795L374.252 515.795L370.252 515.795L366.252 515.795L362.252 515.795L358.252 515.795L354.252 515.795L350.252 515.795L346.252 515.795L342.252 515.795L338.252 515.795L334.252 515.795L330.252 515.795L326.252 515.795L322.252 515.795L318.252 515.795L314.252 515.795L310.252 515.795L306.252 515.795L302.252 515.795L298.252 515.795L294.252 515.795L290.252 515.795L286.252 515.795L282.252 515.795L278.252 515.795L274.252 515.795L270.252 515.795L266.252 515.795L262.252 515.795L258.252 515.795L254.252 515.795L250.252 515.795L246.252 515.795L242.252 515.795L238.252 515.795L234.252 515.795L230.252 515.795L226.252 515.795L222.252 515.795L218.252 515.795L214.252 515.795L210.252 515.795L206.252 515.795L202.252 515.795L199.417 515.795L197.748 515.795" stroke="#000000" stroke-width="64" fill="none" stroke-linecap="round" stroke-linejoin="round" />
  <path id="path-2" d="M830.355 513.646L830.355 509.646L830.355 505.646L830.355 501.646L830.355 497.646L830.355 493.646L830.355 489.646L830.355 485.646L830.355 481.646L830.355 477.646L830.355 473.646L830.355 469.646L830.355 465.646L830.355 461.646L830.355 457.646L830.355 453.646L830.355 449.646L830.355 445.646L830.355 441.646L830.355 437.646L830.355 433.646L830.355 429.646L830.355 425.646L830.355 421.646L830.355 417.646L830.355 413.646L830.355 409.646L830.355 405.646L830.355 401.646L830.355 397.646L830.355 393.646L830.355 389.646L830.355 385.646L830.355 381.646L830.355 377.646L830.355 373.646L830.355 369.646L830.355 365.646L830.355 361.646L830.355 357.646L830.355 353.646L830.355 349.646L830.355 345.646L830.355 341.646L830.355 337.646L830.355 333.646L830.355 329.646L830.355 325.646L830.355 321.646L830.355 317.646L830.355 313.646L830.355 309.646L830.355 305.646L830.355 301.646L830.355 297.646L830.355 293.646L830.355 289.646L830.355 285.646L830.355 281.646L830.355 277.646L830.355 273.646L830.355 269.646L830.355 265.646L830.355 261.646L830.355 257.646L830.355 253.646L830.355 249.646L830.355 245.646L830.355 241.646L830.355 237.646L830.355 233.646L830.355 229.646L830.355 225.646L830.355 221.646L830.355 217.646L830.355 213.646L830.355 209.646L830.355 205.646L830.355 201.646L830.355 197.646L830.355 193.646L830.355 189.646L830.355 185.646L830.355 181.646L830.355 177.646L830.355 173.646L830.355 169.646L830.355 165.646L830.355 161.646L830.355 157.646L830.355 153.646L830.355 149.646L830.355 145.646L830.355 141.646L830.355 137.646L830.355 133.646L830.355 129.646L830.355 125.646L830.355 121.646L830.355 117.646L830.355 113.646L830.355 109.646L830.355 105.646L830.355 101.646L830.355 97.646L830.355 93.646L830.355 89.646L830.355 85.646L830.355 81.646L830.355 77.646L830.355 73.646L830.355 69.646L830.355 65.646L830.355 61.646L830.355 57.646L830.355 53.646L830.355 50.510L830.355 48.238" stroke="#000000" stroke-width="64" fill="none" stroke-linecap="round" stroke-linejoin="round" />
  <path id="path-3" d="M193.799 47.360L193.799 51.360L193.799 55.360L193.799 59.360L193.799 63.360L193.799 67.360L193.799 71.360L193.799 75.360L193.799 79.360L193.799 83.360L193.799 87.360L193.799 91.360L193.799 95.360L193.799 99.360L193.799 103.360L193.799 107.360L193.799 111.360L193.799 115.360L193.799 119.360L193.799 123.360L193.799 127.360L193.799 131.360L193.799 135.360L193.799 139.360L193.799 143.360L193.799 147.360L193.799 151.360L193.799 155.360L193.799 159.360L193.799 163.360L193.799 167.360L193.799 171.360L193.799 175.360L193.799 179.360L193.799 183.360L193.799 187.360L193.799 191.360L193.799 195.360L193.799 199.360L193.799 203.360L193.799 207.360L193.799 211.360L193.799 215.360L193.799 219.360L193.799 223.360L193.799 227.360L193.799 231.360L193.799 235.360L193.799 239.360L193.799 243.360L193.799 247.360L193.799 251.360L193.799 255.360L193.799 259.360L193.799 263.360L193.799 267.360L193.799 271.360L193.799 275.360L193.799 279.360L193.799 283.360L193.799 287.360L193.799 291.360L193.799 295.360L193.799 299.360L193.799 303.360L193.799 307.360L193.799 311.360L193.799 315.360L193.799 319.360L193.799 323.360L193.799 327.360L193.799 331.360L193.799 335.360L193.799 339.360L193.799 343.360L193.799 347.360L193.799 351.360L193.799 355.360L193.799 359.360L193.799 363.360L193.799 367.360L193.799 371.360L193.799 375.360L193.799 379.360L193.799 383.360L193.799 387.360L193.799 391.360L193.799 395.360L193.799 399.360L193.799 403.360L193.799 407.360L193.799 411.360L193.799 415.360L193.799 419.360L193.799 423.360L193.799 427.360L193.799 431.360L193.799 435.360L193.799 439.360L193.799 443.360L193.799 447.360L193.799 451.360L193.799 455.360L193.799 459.360L193.799 463.360L193.799 467.360L193.799 471.360L193.799 475.360L193.799 479.360L193.799 483.360L193.799 487.360L193.799 491.360L193.799 495.360L193.799 499.360L193.799 503.360L193.799 507.360L193.799 510.417L193.799 512.532" stroke="#000000" stroke-width="64" fill="none" stroke-linecap="round" stroke-linejoin="round" />
  <path id="path-4" d="M831.632 975.579L831.632 971.579L831.632 967.579L831.632 963.579L831.632 959.579L831.632 955.579L831.632 951.579L831.632 947.579L831.632 943.579L831.632 939.579L831.632 935.579L831.632 931.579L831.632 927.579L831.632 923.579L831.632 919.579L831.632 915.579L831.632 911.579L831.632 907.579L831.632 903.579L831.632 899.579L831.632 895.579L831.632 891.579L831.632 887.579L831.632 883.579L831.632 879.579L831.632 875.579L831.632 871.579L831.632 867.579L831.632 863.579L831.632 859.579L831.632 855.579L831.632 851.579L831.632 847.579L831.632 843.579L831.632 839.579L831.632 835.579L831.632 831.579L831.632 827.579L831.632 823.579L831.632 819.579L831.632 815.579L831.632 811.579L831.632 807.579L831.632 803.579L831.632 799.579L831.632 795.579L831.632 791.579L831.632 787.579L831.632 783.579L831.632 779.579L831.632 775.579L831.632 771.579L831.632 767.579L831.632 763.579L831.632 759.579L831.632 755.579L831.632 751.579L831.632 747.579L831.632 743.579L831.632 739.579L831.632 735.579L831.632 731.579L831.632 727.579L831.632 723.579L831.632 719.579L831.632 715.579L831.632 711.579L831.632 707.579L831.632 703.579L831.632 699.579L831.632 695.579L831.632 691.579L831.632 687.579L831.632 683.579L831.632 679.579L831.632 675.579L831.632 671.579L831.632 667.579L831.632 663.579L831.632 659.579L831.632 655.579L831.632 651.579L831.632 647.579L831.632 643.579L831.632 639.579L831.632 635.579L831.632 631.579L831.632 627.579L831.632 623.579L831.632 619.579L831.632 615.579L831.632 611.579L831.632 607.579L831.632 603.579L831.632 599.579L831.632 595.579L831.632 591.579L831.632 587.579L831.632 583.579L831.632 579.579L831.632 575.579L831.632 571.579L831.632 567.579L831.632 563.579L831.632 559.579L831.632 555.579L831.632 551.579L831.632 547.579L831.632 543.579L831.632 540.301L831.632 537.745" stroke="#000000" stroke-width="64" fill="none" stroke-linecap="round" stroke-linejoin="round" />
  <path id="path-5" d="M829.603 537.745L829.603 533.745L829.603 529.745L829.603 525.745L829.603 521.745L829.603 517.745L829.603 515.045L829.603 513.646" stroke="#000000" stroke-width="64" fill="none" stroke-linecap="round" stroke-linejoin="round" />
  <path id="path-6" d="M193.986 512.532L193.986 516.532L193.986 520.532L193.986 524.532L193.986 528.532L193.986 532.532L193.986 536.532L193.986 540.532L193.986 544.532L193.986 548.532L193.986 552.532L193.986 556.532L193.986 560.532L193.986 564.532L193.986 568.532L193.986 572.532L193.986 576.532L193.986 580.532L193.986 584.532L193.986 588.532L193.986 592.532L193.986 596.532L193.986 600.532L193.986 604.532L193.986 608.532L193.986 612.532L193.986 616.532L193.986 620.532L193.986 624.532L193.986 628.532L193.986 632.532L193.986 636.532L193.986 640.532L193.986 644.532L193.986 648.532L193.986 652.532L193.986 656.532L193.986 660.532L193.986 664.532L193.986 668.532L193.986 672.532L193.986 676.532L193.986 680.532L193.986 684.532L193.986 688.532L193.986 692.532L193.986 696.532L193.986 700.532L193.986 704.532L193.986 708.532L193.986 712.532L193.986 716.532L193.986 720.532L193.986 724.532L193.986 728.532L193.986 732.532L193.986 736.532L193.986 740.532L193.986 744.532L193.986 748.532L193.986 752.532L193.986 756.532L193.986 760.532L193.986 764.532L193.986 768.532L193.986 772.532L193.986 776.532L193.986 780.532L193.986 784.532L193.986 788.532L193.986 792.532L193.986 796.532L193.986 800.532L193.986 804.532L193.986 808.532L193.986 812.532L193.986 816.532L193.986 820.532L193.986 824.532L193.986 828.532L193.986 832.532L193.986 836.532L193.986 840.532L193.986 844.532L193.986 848.532L193.986 852.532L193.986 856.532L193.986 860.532L193.986 864.532L193.986 868.532L193.986 872.532L193.986 876.532L193.986 880.532L193.986 884.532L193.986 888.532L193.986 892.532L193.986 896.532L193.986 900.532L193.986 904.532L193.986 908.532L193.986 912.532L193.986 916.532L193.986 920.532L193.986 924.532L193.986 928.532L193.986 932.532L193.986 936.532L193.986 940.532L193.986 944.532L193.986 948.532L193.986 952.532L193.986 956.532L193.986 960.532L193.986 964.532L193.986 968.532L193.986 971.627L193.986 973.817" stroke="#000000" stroke-width="64" fill="none" stroke-linecap="round" stroke-linejoin="round" />
  <path id="path-7" d="M829.539 537.745L829.539 533.745L829.539 529.745L829.539 525.745L829.539 521.745L829.539 517.745L829.539 513.955L829.539 510.374" stroke="#000000" stroke-width="64" fill="none" stroke-linecap="round" stroke-linejoin="round" />
  <path id="path-8" d="M828.272 516.295L828.272 520.295L828.272 524.295L828.272 528.295L828.272 532.295L828.272 535.445L828.272 537.745" stroke="#000000" stroke-width="64" fill="none" stroke-linecap="round" stroke-linejoin="round" />
  <path id="path-9" d="M829.603 513.646L829.603 517.646L829.603 521.646L829.603 525.646L829.603 529.646L829.603 533.646L829.603 536.346L829.603 537.745" stroke="#000000" stroke-width="64" fill="none" stroke-linecap="round" stroke-linejoin="round" />
 </g>
</svg>
