<?xml version="1.0" encoding="UTF-8"?>
<svg xmlns="http://www.w3.org/2000/svg" width="1024" height="1024" viewBox="0 0 1024 1024" preserveAspectRatio="xMidYMid meet">
 <g id="centerline-shapes">
  <path id="path-1" d="M826.252 515.795L822.252 515.795L818.252 515.795L814.252 515.795L810.252 515.795L806.252 515.795L802.252 515.795L798.252 515.795L794.252 515.795L790.252 515.795L786.252 515.795L782.252 515.795L778.252 515.795L774.252 515.795L770.252 515.795L766.252 515.795L762.252 515.795L758.252 515.795L754.252 515.795L750.252 515.795L746.252 515.795L742.252 515.795L738.252 515.795L734.252 515.795L730.252 515.795L726.252 515.795L722.252 515.795L718.252 515.795L714.252 515.795L710.252 515.795L706.252 515.795L702.252 515.795L698.252 515.795L694.252 515.795L690.252 515.795L686.252 515.795L682.252 515.795L678.252 515.795L674.252 515.795L670.252 515.795L666.252 515.795L662.252 515.795L658.252 515.795L654.252 515.795L650.252 515.795L646.252 515.795L642.252 515.795L638.252 515.795L634.252 515.795L630.252 515.795L626.252 515.795L622.252 515.795L618.252 515.795L614.252 515.795L610.252 515.795L606.252 515.795L602.252 515.795L598.252 515.795L594.252 515.795L590.252 515.795L586.252 515.795L582.252 515.795L578.252 515.795L574.252 515.795L570.252 515.795L566.252 515.795L562.252 515.795L558.252 515.795L554.252 515.795L550.252 515.795L546.252 515.795L542.252 515.795L538.252 515.795L534.252 515.795L530.252 515.795L526.252 515.795L522.252 515.795L518.252 515.795L514.252 515.795L510.252 515.795L506.252 515.795L502.252 515.795L498.252 515.795L494.252 515.795L490.252 515.795L486.252 515.795L482.252 515.795L478.252 515.795L474.252 515.795L470.252 515.795L466.252 515.795L462.252 515.795L458.252 515.795L454.252 515.795L450.252 515.795L446.252 515.795L442.252 515.795L438.252 515.795L434.252 515.795L430.252 515.795L426.252 515.795L422.252 515.795L418.252 515.795L414.252 515.795L410.252 515.795L406.252 515.795L402.252 515.795L398.252 515.795L394.252 515.795L390.252 515.795L386.252 515.795L382.252 515.795L378.252 515.795L374.252 515.795L370.252 515.795L366.252 515.795L362.252 515.795L358.252 515.795L354.252 515.795L350.252 515.795L346.252 515.795L342.252 515.795L338.252 515.795L334.252 515.795L330.252 515.795L326.252 515.795L322.252 515.795L318.252 515.795L314.252 515.795L310.252 515.795L306.252 515.795L302.252 515.795L298.252 515.795L294.252 515.795L290.252 515.795L286.252 515.795L282.252 515.795L278.252 515.795L274.252 515.795L270.252 515.795L266.252 515.795L262.252 515.795L258.252 515.795L254.252 515.795L250.252 515.795L246.252 515.795L242.252 515.795L238.252 515.795L234.252 515.795L230.252 515.795L226.252 515.795L222.252 515.795L218.252 515.795L214.252 515.795L210.252 515.795L206.252 515.795L202.252 515.795L199.417 515.795L197.748 515.795" stroke="#000000" stroke-width="64" fill="none" stroke-linecap="round" stroke-linejoin="round" />
  <path id="path-2" d="M830.743 975.579L830.743 971.579L830.743 967.579L830.743 963.579L830.743 959.579L830.743 955.579L830.743 951.579L830.743 947.579L830.743 943.579L830.743 939.579L830.743 935.579L830.743 931.579L830.743 927.579L830.743 923.579L830.743 919.579L830.743 915.579L830.743 911.579L830.743 907.579L830.743 903.579L830.743 899.579L830.743 895.579L830.743 891.579L830.743 887.579L830.743 883.579L830.743 879.579L830.743 875.579L830.743 871.579L830.743 867.579L830.743 863.579L830.743 859.579L830.743 855.579L830.743 851.579L830.743 847.579L830.743 843.579L830.743 839.579L830.743 835.579L830.743 831.579L830.743 827.579L830.743 823.579L830.743 819.579L830.743 815.579L830.743 811.579L830.743 807.579L830.743 803.579L830.743 799.579L830.743 795.579L830.743 791.579L830.743 787.579L830.743 783.579L830.743 779.579L830.743 775.579L830.743 771.579L830.743 767.579L830.743 763.579L830.743 759.579L830.743 755.579L830.743 751.579L830.743 747.579L830.743 743.579L830.743 739.579L830.743 735.579L830.743 731.579L830.743 727.579L830.743 723.579L830.743 719.579L830.743 715.579L830.743 711.579L830.743 707.579L830.743 703.579L830.743 699.579L830.743 695.579L830.743 691.579L830.743 687.579L830.743 683.579L830.743 679.579L830.743 675.579L830.743 671.579L830.743 667.579L830.743 663.579L830.743 659.579L830.743 655.579L830.743 651.579L830.743 647.579L830.743 643.579L830.743 639.579L830.743 635.579L830.743 631.579L830.743 627.579L830.743 623.579L830.743 619.579L830.743 615.579L830.743 611.579L830.743 607.579L830.743 603.579L830.743 599.579L830.743 595.579L830.743 591.579L830.743 587.579L830.743 583.579L830.743 579.579L830.743 575.579L830.743 571.579L830.743 567.579L830.743 563.579L830.743 559.579L830.743 555.579L830.743 551.579L830.743 547.579L830.743 543.579L830.743 539.579L830.743 535.579L830.743 531.579L830.743 527.579L830.743 523.579L830.743 519.579L830.743 515.579L830.743 513.442L830.743 513.972L830.743 517.169L830.743 521.169L830.743 525.169L830.743 529.169L830.743 533.169L830.743 534.886L830.743 533.937L830.743 530.321L830.743 526.321L830.743 522.321L830.743 518.321L830.743 514.321L830.743 510.321L830.743 506.321L830.743 502.321L830.743 498.321L830.743 494.321L830.743 490.321L830.743 486.321L830.743 482.321L830.743 478.321L830.743 474.321L830.743 470.321L830.743 466.321L830.743 462.321L830.743 458.321L830.743 454.321L830.743 450.321L830.743 446.321L830.743 442.321L830.743 438.321L830.743 434.321L830.743 430.321L830.743 426.321L830.743 422.321L830.743 418.321L830.743 414.321L830.743 410.321L830.743 406.321L830.743 402.321L830.743 398.321L830.743 394.321L830.743 390.321L830.743 386.321L830.743 382.321L830.743 378.321L830.743 374.321L830.743 370.321L830.743 366.321L830.743 362.321L830.743 358.321L830.743 354.321L830.743 350.321L830.743 346.321L830.743 342.321L830.743 338.321L830.743 334.321L830.743 330.321L830.743 326.321L830.743 322.321L830.743 318.321L830.743 314.321L830.743 310.321L830.743 306.321L830.743 302.321L830.743 298.321L830.743 294.321L830.743 290.321L830.743 286.321L830.743 282.321L830.743 278.321L830.743 274.321L830.743 270.321L830.743 266.321L830.743 262.321L830.743 258.321L830.743 254.321L830.743 250.321L830.743 246.321L830.743 242.321L830.743 238.321L830.743 234.321L830.743 230.321L830.743 226.321L830.743 222.321L830.743 218.321L830.743 214.321L830.743 210.321L830.743 206.321L830.743 202.321L830.743 198.321L830.743 194.321L830.743 190.321L830.743 186.321L830.743 182.321L830.743 178.321L830.743 174.321L830.743 170.321L830.743 166.321L830.743 162.321L830.743 158.321L830.743 154.321L830.743 150.321L830.743 146.321L830.743 142.321L830.743 138.321L830.743 134.321L830.743 130.321L830.743 126.321L830.743 122.321L830.743 118.321L830.743 114.321L830.743 110.321L830.743 106.321L830.743 102.321L830.743 98.321L830.743 94.321L830.743 90.321L830.743 86.321L830.743 82.321L830.743 78.321L830.743 74.321L830.743 70.321L830.743 66.321L830.743 62.321L830.743 58.321L830.743 54.321L830.743 50.960L830.743 48.238" stroke="#000000" stroke-width="64" fill="none" stroke-linecap="round" stroke-linejoin="round" />
  <path id="path-3" d="M192.502 47.360L192.502 51.360L192.502 55.360L192.502 59.360L192.502 63.360L192.502 67.360L192.502 71.360L192.502 75.360L192.502 79.360L192.502 83.360L192.502 87.360L192.502 91.360L192.502 95.360L192.502 99.360L192.502 103.360L192.502 107.360L192.502 111.360L192.502 115.360L192.502 119.360L192.502 123.360L192.502 127.360L192.502 131.360L192.502 135.360L192.502 139.360L192.502 143.360L192.502 147.360L192.502 151.360L192.502 155.360L192.502 159.360L192.502 163.360L192.502 167.360L192.502 171.360L192.502 175.360L192.502 179.360L192.502 183.360L192.502 187.360L192.502 191.360L192.502 195.360L192.502 199.360L192.502 203.360L192.502 207.360L192.502 211.360L192.502 215.360L192.502 219.360L192.502 223.360L192.502 227.360L192.502 231.360L192.502 235.360L192.502 239.360L192.502 243.360L192.502 247.360L192.502 251.360L192.502 255.360L192.502 259.360L192.502 263.360L192.502 267.360L192.502 271.360L192.502 275.360L192.502 279.360L192.502 283.360L192.502 287.360L192.502 291.360L192.502 295.360L192.502 299.360L192.502 303.360L192.502 307.360L192.502 311.360L192.502 315.360L192.502 319.360L192.502 323.360L192.502 327.360L192.502 331.360L192.502 335.360L192.502 339.360L192.502 343.360L192.502 347.360L192.502 351.360L192.502 355.360L192.502 359.360L192.502 363.360L192.502 367.360L192.502 371.360L192.502 375.360L192.502 379.360L192.502 383.360L192.502 387.360L192.502 391.360L192.502 395.360L192.502 399.360L192.502 403.360L192.502 407.360L192.502 411.360L192.502 415.360L192.502 419.360L192.502 423.360L192.502 427.360L192.502 431.360L192.502 435.360L192.502 439.360L192.502 443.360L192.502 447.360L192.502 451.360L192.502 455.360L192.502 459.360L192.502 463.360L192.502 467.360L192.502 471.360L192.502 475.360L192.502 479.360L192.502 483.360L192.502 487.360L192.502 491.360L192.502 495.360L192.502 499.360L192.502 503.360L192.502 507.360L192.502 511.360L192.502 515.360L192.502 519.360L192.502 523.360L192.502 527.360L192.502 531.360L192.502 535.360L192.502 539.360L192.502 543.360L192.502 547.360L192.502 551.360L192.502 555.360L192.502 559.360L192.502 563.360L192.502 567.360L192.502 571.360L192.502 575.360L192.502 579.360L192.502 583.360L192.502 587.360L192.502 591.360L192.502 595.360L192.502 599.360L192.502 603.360L192.502 607.360L192.502 611.360L192.502 615.360L192.502 619.360L192.502 623.360L192.502 627.360L192.502 631.360L192.502 635.360L192.502 639.360L192.502 643.360L192.502 647.360L192.502 651.360L192.502 655.360L192.502 659.360L192.502 663.360L192.502 667.360L192.502 671.360L192.502 675.360L192.502 679.360L192.502 683.360L192.502 687.360L192.502 691.360L192.502 695.360L192.502 699.360L192.502 703.360L192.502 707.360L192.502 711.360L192.502 715.360L192.502 719.360L192.502 723.360L192.502 727.360L192.502 731.360L192.502 735.360L192.502 739.360L192.502 743.360L192.502 747.360L192.502 751.360L192.502 755.360L192.502 759.360L192.502 763.360L192.502 767.360L192.502 771.360L192.502 775.360L192.502 779.360L192.502 783.360L192.502 787.360L192.502 791.360L192.502 795.360L192.502 799.360L192.502 803.360L192.502 807.360L192.502 811.360L192.502 815.360L192.502 819.360L192.502 823.360L192.502 827.360L192.502 831.360L192.502 835.360L192.502 839.360L192.502 843.360L192.502 847.360L192.502 851.360L192.502 855.360L192.502 859.360L192.502 863.360L192.502 867.360L192.502 871.360L192.502 875.360L192.502 879.360L192.502 883.360L192.502 887.360L192.502 891.360L192.502 895.360L192.502 899.360L192.502 903.360L192.502 907.360L192.502 911.360L192.502 915.360L192.502 919.360L192.502 923.360L192.502 927.360L192.502 931.360L192.502 935.360L192.502 939.360L192.502 943.360L192.502 947.360L192.502 951.360L192.502 955.360L192.502 959.360L192.502 963.360L192.502 967.360L192.502 970.845L192.502 973.817" stroke="#000000" stroke-width="64" fill="none" stroke-linecap="round" stroke-linejoin="round" />
 </g>
</svg>
