<?xml version="1.0" encoding="UTF-8"?>
<svg xmlns="http://www.w3.org/2000/svg" width="1024" height="1024" viewBox="0 0 1024 1024" preserveAspectRatio="xMidYMid meet">
 <g id="centerline-shapes">
  <path id="path-1" d="M764.881 977.739L762.553 974.486L760.226 971.233L757.898 967.980L755.570 964.727L753.242 961.474L750.914 958.221L748.587 954.968L746.259 951.715L743.931 948.463L741.603 945.210L739.276 941.957L736.948 938.704L734.620 935.451L732.292 932.198L729.964 928.945L727.637 925.692L725.309 922.439L722.981 919.186L720.653 915.933L718.326 912.680L715.998 909.427L713.670 906.175L711.342 902.922L709.015 899.669L706.687 896.416L704.359 893.163L702.031 889.910L699.703 886.657L697.376 883.404L695.048 880.151L692.720 876.898L690.392 873.645L688.065 870.392L685.737 867.140L683.409 863.887L681.081 860.634L678.754 857.381L676.426 854.128L674.098 850.875L671.770 847.622L669.442 844.369L667.115 841.116L664.787 837.863L662.459 834.610L660.131 831.357L657.804 828.104L655.476 824.852L653.148 821.599L650.820 818.346L648.493 815.093L646.165 811.840L643.837 808.587L641.509 805.334L639.181 802.081L636.854 798.828L634.526 795.575L632.198 792.322L629.870 789.069L627.543 785.817L625.215 782.564L622.887 779.311L620.559 776.058L618.232 772.805L615.904 769.552L613.576 766.299L611.248 763.046L608.920 759.793L606.593 756.540L604.265 753.287L601.937 750.034L599.609 746.781L597.282 743.529L594.954 740.276L592.626 737.023L590.298 733.770L587.971 730.517L585.643 727.264L583.315 724.011L580.987 720.758L578.659 717.505L576.332 714.252L574.004 710.999L571.676 707.746L569.348 704.494L567.021 701.241L564.693 697.988L562.365 694.735L560.037 691.482L557.709 688.229L555.382 684.976L553.054 681.723L550.726 678.470L548.398 675.217L546.071 671.964L543.743 668.711L541.415 665.459L539.087 662.206L536.760 658.953L534.432 655.700L532.104 652.447L529.776 649.194L527.448 645.941L525.121 642.688L522.793 639.435L520.465 636.182L518.137 632.929L515.810 629.676L513.482 626.423L511.154 623.171L508.826 619.918L506.499 616.665L504.171 613.412L501.843 610.159L499.515 606.906L497.187 603.653L494.860 600.400L492.532 597.147L490.204 593.894L487.876 590.641L485.549 587.388L483.221 584.136L480.893 580.883L478.565 577.630L476.238 574.377L473.910 571.124L471.582 567.871L469.254 564.618L466.926 561.365L464.599 558.112L462.271 554.859L459.943 551.606L457.615 548.353L455.288 545.100L452.960 541.848L450.632 538.595L448.304 535.342L445.977 532.089L443.649 528.836L441.321 525.583L438.993 522.330L436.665 519.077L434.338 515.824L432.010 512.571L429.682 509.318L427.354 506.065L425.027 502.813L422.699 499.560L420.371 496.307L418.043 493.054L415.716 489.801L413.388 486.548L411.060 483.295L408.732 480.042L406.404 476.789L404.077 473.536L401.749 470.283L399.421 467.030L397.093 463.777L395.464 461.500L394.533 460.199" stroke="#000000" stroke-width="64" fill="none" stroke-linecap="round" stroke-linejoin="round" />
  <path id="path-2" d="M394.896 460.199L394.896 456.199L394.896 452.199L394.896 448.559L394.896 445.280" stroke="#000000" stroke-width="64" fill="none" stroke-linecap="round" stroke-linejoin="round" />
  <path id="path-3" d="M285.596 496.246L285.596 500.246L285.596 504.246L285.596 508.246L285.596 512.246L285.596 516.246L285.596 520.246L285.596 524.246L285.596 528.246L285.596 532.246L285.596 536.246L285.596 540.246L285.596 544.246L285.596 548.246L285.596 552.246L285.596 556.246L285.596 560.246L285.596 564.246L285.596 568.246L285.596 572.246L285.596 576.246L285.596 580.246L285.596 584.246L285.596 588.246L285.596 592.246L285.596 596.246L285.596 600.246L285.596 604.246L285.596 608.246L285.596 612.246L285.596 616.246L285.596 620.246L285.596 624.246L285.596 628.246L285.596 632.246L285.596 636.246L285.596 640.246L285.596 644.246L285.596 648.246L285.596 652.246L285.596 656.246L285.596 660.246L285.596 664.246L285.596 668.246L285.596 672.246L285.596 676.246L285.596 680.246L285.596 684.246L285.596 688.246L285.596 692.246L285.596 696.246L285.596 700.246L285.596 704.246L285.596 708.246L285.596 712.246L285.596 716.246L285.596 720.246L285.596 724.246L285.596 728.246L285.596 732.246L285.596 736.246L285.596 740.246L285.596 744.246L285.596 748.246L285.596 752.246L285.596 756.246L285.596 760.246L285.596 764.246L285.596 768.246L285.596 772.246L285.596 776.246L285.596 780.246L285.596 784.246L285.596 788.246L285.596 792.246L285.596 796.246L285.596 800.246L285.596 804.246L285.596 808.246L285.596 812.246L285.596 816.246L285.596 820.246L285.596 824.246L285.596 828.246L285.596 832.246L285.596 836.246L285.596 840.246L285.596 844.246L285.596 848.246L285.596 852.246L285.596 856.246L285.596 860.246L285.596 864.246L285.596 868.246L285.596 872.246L285.596 876.246L285.596 880.246L285.596 884.246L285.596 888.246L285.596 892.246L285.596 896.246L285.596 900.246L285.596 904.246L285.596 908.246L285.596 912.246L285.596 916.246L285.596 920.246L285.596 924.246L285.596 928.246L285.596 932.246L285.596 936.246L285.596 940.246L285.596 944.246L285.596 948.246L285.596 952.246L285.596 956.246L285.596 960.246L285.596 964.246L285.596 968.246L285.596 972.246L285.596 975.616L285.596 978.357" stroke="#000000" stroke-width="64" fill="none" stroke-linecap="round" stroke-linejoin="round" />
  <path id="path-4" d="M285.525 44.030L285.525 48.030L285.525 52.030L285.525 56.030L285.525 60.030L285.525 64.030L285.525 68.030L285.525 72.030L285.525 76.030L285.525 80.030L285.525 84.030L285.525 88.030L285.525 92.030L285.525 96.030L285.525 100.030L285.525 104.030L285.525 108.030L285.525 112.030L285.525 116.030L285.525 120.030L285.525 124.030L285.525 128.030L285.525 132.030L285.525 136.030L285.525 140.030L285.525 144.030L285.525 148.030L285.525 152.030L285.525 156.030L285.525 160.030L285.525 164.030L285.525 168.030L285.525 172.030L285.525 176.030L285.525 180.030L285.525 184.030L285.525 188.030L285.525 192.030L285.525 196.030L285.525 200.030L285.525 204.030L285.525 208.030L285.525 212.030L285.525 216.030L285.525 220.030L285.525 224.030L285.525 228.030L285.525 232.030L285.525 236.030L285.525 240.030L285.525 244.030L285.525 248.030L285.525 252.030L285.525 256.030L285.525 260.030L285.525 264.030L285.525 268.030L285.525 272.030L285.525 276.030L285.525 280.030L285.525 284.030L285.525 288.030L285.525 292.030L285.525 296.030L285.525 300.030L285.525 304.030L285.525 308.030L285.525 312.030L285.525 316.030L285.525 320.030L285.525 324.030L285.525 328.030L285.525 332.030L285.525 336.030L285.525 340.030L285.525 344.030L285.525 348.030L285.525 352.030L285.525 356.030L285.525 360.030L285.525 364.030L285.525 368.030L285.525 372.030L285.525 376.030L285.525 380.030L285.525 384.030L285.525 388.030L285.525 392.030L285.525 396.030L285.525 400.030L285.525 404.030L285.525 408.030L285.525 412.030L285.525 416.030L285.525 420.030L285.525 424.030L285.525 428.030L285.525 432.030L285.525 436.030L285.525 440.030L285.525 444.030L285.525 448.030L285.525 452.030L285.525 456.030L285.525 460.030L285.525 464.030L285.525 468.030L285.525 472.030L285.525 476.030L285.525 480.030L285.525 484.030L285.525 488.030L285.525 492.030L285.525 494.769L285.525 496.246" stroke="#000000" stroke-width="64" fill="none" stroke-linecap="round" stroke-linejoin="round" />
  <path id="path-5" d="M719.809 243.275L716.436 245.424L713.062 247.573L709.688 249.722L706.315 251.871L702.941 254.020L699.567 256.169L696.193 258.318L692.820 260.467L689.446 262.616L686.072 264.765L682.699 266.914L679.325 269.063L675.951 271.212L672.578 273.361L669.204 275.510L665.830 277.659L662.457 279.808L659.083 281.957L655.709 284.106L652.335 286.255L648.962 288.404L645.588 290.553L642.214 292.702L638.841 294.851L635.467 297.000L632.093 299.149L628.720 301.298L625.346 303.447L621.972 305.596L618.599 307.745L615.225 309.894L611.851 312.043L608.477 314.192L605.104 316.341L601.730 318.490L598.356 320.639L594.983 322.788L591.609 324.937L588.235 327.086L584.862 329.235L581.488 331.384L578.114 333.533L574.741 335.682L571.367 337.831L567.993 339.980L564.619 342.129L561.246 344.278L557.872 346.427L554.498 348.576L551.125 350.725L547.751 352.874L544.377 355.023L541.004 357.172L537.630 359.321L534.256 361.470L530.883 363.619L527.509 365.768L524.135 367.917L520.761 370.066L517.388 372.215L514.014 374.364L510.640 376.513L507.267 378.662L503.893 380.811L500.519 382.960L497.146 385.109L493.772 387.258L490.398 389.407L487.025 391.556L483.651 393.705L480.277 395.854L476.903 398.003L473.530 400.152L470.156 402.301L466.782 404.450L463.409 406.599L460.035 408.748L456.661 410.897L453.288 413.046L449.914 415.195L446.540 417.344L443.167 419.493L439.793 421.642L436.419 423.791L433.045 425.940L429.672 428.089L426.298 430.238L422.924 432.387L419.551 434.536L416.226 436.654L412.951 438.740" stroke="#000000" stroke-width="64" fill="none" stroke-linecap="round" stroke-linejoin="round" />
  <path id="path-6" d="M412.951 438.740L409.700 441.070L406.448 443.400L403.197 445.729L399.946 448.059L396.694 450.389L393.443 452.719L390.191 455.049L387.592 456.911L385.644 458.307" stroke="#000000" stroke-width="64" fill="none" stroke-linecap="round" stroke-linejoin="round" />
  <path id="path-7" d="M289.592 496.868L293.576 496.509L297.560 496.149L301.543 495.789L305.527 495.429L309.511 495.069L313.495 494.709L317.479 494.349L321.320 493.529L324.997 492.178L328.509 490.295L331.999 488.341L335.489 486.387L338.980 484.433L342.470 482.479L345.960 480.525L349.450 478.571L352.941 476.617L356.431 474.663L359.921 472.709L363.411 470.755L366.901 468.800L370.392 466.846L373.882 464.892L377.372 462.938L380.862 460.984L383.620 459.440L385.644 458.307" stroke="#000000" stroke-width="64" fill="none" stroke-linecap="round" stroke-linejoin="round" />
  <path id="path-8" d="M394.896 445.280L394.896 449.280L394.896 453.280L394.896 456.919L394.896 460.199" stroke="#000000" stroke-width="64" fill="none" stroke-linecap="round" stroke-linejoin="round" />
  <path id="path-9" d="M412.951 438.740L410.346 441.775L407.741 444.810L405.136 447.846L402.530 450.881L399.925 453.916L397.320 456.952L395.523 459.046L394.533 460.199" stroke="#000000" stroke-width="64" fill="none" stroke-linecap="round" stroke-linejoin="round" />
  <path id="path-10" d="M385.644 459.253L389.644 459.253L392.607 459.253L394.533 459.253" stroke="#000000" stroke-width="64" fill="none" stroke-linecap="round" stroke-linejoin="round" />
  <path id="path-11" d="M395.259 445.280L399.011 443.893L402.763 442.506L406.515 441.119L409.911 439.864L412.951 438.740" stroke="#000000" stroke-width="64" fill="none" stroke-linecap="round" stroke-linejoin="round" />
  <path id="path-12" d="M385.644 458.307L388.895 455.977L392.147 453.648L395.398 451.318L398.650 448.988L401.901 446.658L405.153 444.328L408.404 441.998L411.004 440.136L412.951 438.740" stroke="#000000" stroke-width="64" fill="none" stroke-linecap="round" stroke-linejoin="round" />
 </g>
</svg>
