<?xml version="1.0" encoding="UTF-8"?>
<svg xmlns="http://www.w3.org/2000/svg" width="1024" height="1024" viewBox="0 0 1024 1024" preserveAspectRatio="xMidYMid meet">
 <rect width="1024" height="1024" fill="#ffffff" />
 <g id="centerline-shapes">
  <path id="path-1" d="M260.462 600.475L261.109 596.528L261.756 592.581L262.402 588.633L263.049 584.686L263.696 580.739L264.342 576.791L264.989 572.844L265.636 568.896L266.282 564.949L266.929 561.002L267.576 557.054L268.222 553.107L269.257 549.324L271.033 545.998L273.834 543.500L277.273 541.666L280.850 539.949L284.229 537.890L287.409 535.488L290.538 532.997L293.668 530.505L296.797 528.013L299.834 525.432L302.630 522.617L305.185 519.566L307.588 516.368L309.991 513.171L312.395 509.974L314.798 506.776L317.202 503.579L319.605 500.381L322.008 497.184L324.412 493.986L326.815 490.789L329.219 487.591L331.622 484.394L334.025 481.197L336.429 477.999L338.951 474.905L341.615 471.934L344.420 469.085L347.249 466.257L350.077 463.428L352.906 460.600L355.802 457.853L358.849 455.286L362.047 452.898L365.328 450.610L368.608 448.321L371.889 446.032L375.170 443.744L378.450 441.455L381.731 439.166L385.011 436.878L388.292 434.589L391.572 432.300L394.853 430.012L398.134 427.723L401.414 425.435L404.771 423.283L408.260 421.371L411.882 419.696L415.559 418.124L419.237 416.551L422.915 414.978L426.593 413.405L430.326 411.998L434.128 410.801L438.001 409.815L441.889 408.874L445.777 407.934L449.665 406.993L453.552 406.053L457.440 405.112L461.328 404.171L465.216 403.231L469.104 402.290L472.992 401.349L476.879 400.409L480.767 399.468L484.655 398.527L488.566 397.746L492.513 397.209L496.495 396.917L500.490 396.711L504.484 396.506L508.479 396.300L512.474 396.094L516.468 395.888L520.463 395.703L524.454 395.700L528.442 395.878L532.428 396.218L536.413 396.558L540.399 396.897L544.384 397.237L548.370 397.576L552.356 397.916L556.341 398.255L560.327 398.595L564.310 398.946L568.254 399.526L572.159 400.333L576.026 401.356L579.893 402.379L583.759 403.402L587.626 404.425L591.493 405.448L595.360 406.471L599.227 407.495L603.094 408.518L606.961 409.541L610.828 410.564L614.695 411.587L618.562 412.610L622.429 413.633L626.250 414.783L629.995 416.147L633.663 417.726L637.299 419.392L640.935 421.059L644.571 422.726L648.159 424.481L651.657 426.402L655.063 428.488L658.427 430.652L661.791 432.816L665.155 434.981L668.519 437.145L671.883 439.309L675.247 441.473L678.611 443.637L681.838 445.971L684.887 448.527L687.757 451.304L690.585 454.132L693.413 456.961L696.242 459.789L699.070 462.617L701.899 465.446L704.727 468.274L707.555 471.103L710.384 473.931L713.212 476.760L716.041 479.588L718.720 482.538L721.190 485.659L723.449 488.951L725.647 492.293L727.845 495.635L730.043 498.977L732.241 502.319L734.439 505.661L736.637 509.003L738.835 512.345L740.918 515.751L742.831 519.252L744.574 522.847L746.262 526.474L747.950 530.100L749.638 533.726L751.326 537.353L752.985 540.990L754.491 544.688L755.844 548.446L757.073 552.253L758.302 556.059L759.530 559.866L760.759 563.673L761.988 567.479L763.216 571.286L764.445 575.092L765.673 578.899L766.902 582.706L768.131 586.512L769.359 590.319L770.588 594.126L771.789 597.939L772.765 601.803L773.516 605.719L774.070 609.681L774.623 613.642L775.177 617.604L775.730 621.565L776.283 625.527L776.837 629.488L777.390 633.450L777.944 637.412L778.497 641.373L779.051 645.335L779.604 649.296L780.027 653.268L780.297 657.253L780.413 661.250L780.507 665.249L780.601 669.248L780.695 673.247L780.789 677.246L780.883 681.244L780.977 685.243L781.071 689.242L781.165 693.241L781.258 697.240L781.352 701.239L781.431 705.238L781.396 709.234L781.249 713.228L781.004 717.221L780.759 721.213L780.515 725.206L780.270 729.198L779.929 733.178L779.412 737.136L778.720 741.071L777.949 744.996L777.178 748.921L776.407 752.846L775.636 756.771L774.865 760.696L774.094 764.621L773.234 768.521L772.173 772.365L770.910 776.153L769.536 779.910L768.162 783.666L766.788 787.423L765.414 791.179L764.040 794.936L762.666 798.693L761.292 802.449L759.918 806.206L758.544 809.962L757.170 813.719L755.796 817.476L754.422 821.232L753.048 824.989L751.596 828.709L749.936 832.332L748.068 835.858L746.071 839.324L744.074 842.790L742.077 846.256L740.080 849.722L738.083 853.187L736.086 856.653L734.089 860.119L732.092 863.585L730.095 867.051L728.098 870.517L726.101 873.982L724.104 877.448L722.107 880.914L720.110 884.380L718.113 887.846L715.881 891.134L713.384 894.221L710.621 897.108L707.829 899.971L705.036 902.835L702.244 905.699L699.451 908.563L696.658 911.427L693.866 914.291L691.073 917.154L688.281 920.018L685.488 922.882L682.696 925.746L679.903 928.610L676.918 931.225L673.707 933.550L670.271 935.584L666.802 937.576L663.333 939.567L659.864 941.559L656.396 943.551L652.927 945.542L649.458 947.534L645.989 949.526L642.520 951.518L639.051 953.509L635.582 955.501L632.113 957.493L628.581 959.338L624.931 960.914L621.164 962.223L617.344 963.410L613.524 964.597L609.704 965.784L605.885 966.972L602.065 968.159L598.245 969.346L594.412 970.470L590.528 971.353L586.593 971.994L582.619 972.457L578.646 972.920L574.673 973.383L570.700 973.846L566.727 974.309L562.754 974.772L558.781 975.235L554.808 975.698L550.833 976.118L546.850 976.332L542.859 976.340L538.862 976.184L534.865 976.029L530.869 975.873L526.872 975.718L522.875 975.563L518.878 975.407L514.881 975.252L510.884 975.096L506.887 974.941L502.890 974.785L498.893 974.630L494.896 974.475L490.909 974.228L486.943 973.793L482.997 973.170L479.062 972.451L475.128 971.731L471.193 971.012L467.258 970.292L463.323 969.573L459.389 968.853L455.454 968.134L451.519 967.414L447.584 966.695L443.650 965.975L439.715 965.256L435.788 964.510L431.928 963.523L428.137 962.293L424.407 960.849L420.677 959.405L416.947 957.961L413.217 956.517L409.486 955.073L405.756 953.629L402.026 952.184L398.334 950.663L394.748 948.928L391.267 946.979L387.853 944.893L384.440 942.808L381.027 940.723L377.613 938.638L374.200 936.552L370.786 934.467L367.373 932.382L363.959 930.296L360.546 928.211L357.132 926.126L353.719 924.041L350.383 921.857L347.241 919.426L344.295 916.748L341.467 913.919L338.638 911.091L335.810 908.262L332.981 905.434L330.153 902.606L327.324 899.777L324.496 896.949L321.668 894.120L318.923 891.222L316.363 888.169L313.987 884.963L311.711 881.674L309.435 878.385L307.158 875.096L304.882 871.807L302.606 868.518L300.351 865.217L298.337 861.783L296.564 858.218L295.009 854.533L293.455 850.847L291.900 847.161L290.345 843.476L288.791 839.790L287.236 836.105L285.682 832.419L284.127 828.734L282.573 825.048L281.018 821.362L279.464 817.677L277.909 813.991L276.355 810.306L274.800 806.620L273.245 802.935L271.902 799.188L270.855 795.355L270.105 791.435L269.441 787.491L268.777 783.546L268.113 779.602L267.449 775.657L266.786 771.712L266.122 767.768L265.458 763.823L264.794 759.879L264.130 755.934L263.466 751.990L262.803 748.045L262.139 744.101L261.475 740.156L260.811 736.212L260.147 732.267L259.483 728.323L258.819 724.378L258.156 720.434L257.567 716.480L257.094 712.512L256.737 708.529L256.422 704.542L256.106 700.554L255.790 696.567L255.475 692.579L255.159 688.592L254.843 684.604L254.528 680.617L254.212 676.629L253.896 672.642L253.581 668.654L253.265 664.666L252.950 660.679L252.815 656.699L252.995 652.731L253.490 648.775L254.119 644.825L254.747 640.874L255.376 636.924L256.004 632.974L256.633 629.023L257.261 625.073L257.890 621.123L258.518 617.172L259.146 613.222L259.775 609.272L260.403 605.321L261.032 601.371L261.660 597.421L262.289 593.470L262.917 589.520L263.546 585.570L264.174 581.620L264.803 577.669L265.431 573.719L266.060 569.769L266.688 565.818L267.316 561.868L267.945 557.918L268.573 553.967L269.202 550.017L269.316 546.124L268.725 542.310L267.430 538.575L265.944 534.861L264.459 531.147L262.973 527.433L261.488 523.719L260.002 520.005L258.517 516.292L257.031 512.578L255.545 508.864L254.060 505.150L252.574 501.436L251.240 497.697L250.473 493.865L250.273 489.939L250.488 485.945L250.703 481.951L250.919 477.956L251.134 473.962L251.349 469.968L251.564 465.974L251.780 461.980L251.995 457.985L252.210 453.991L252.425 449.997L252.641 446.003L252.856 442.009L253.071 438.014L253.286 434.020L253.502 430.026L253.717 426.032L253.932 422.038L254.148 418.043L254.363 414.049L254.578 410.055L254.793 406.061L255.009 402.067L255.224 398.072L255.439 394.078L255.654 390.084L255.870 386.090L256.112 382.098L256.487 378.121L256.995 374.157L257.609 370.205L258.223 366.252L258.837 362.299L259.451 358.347L260.066 354.394L260.680 350.442L261.294 346.489L261.908 342.537L262.522 338.584L263.136 334.631L263.751 330.679L264.365 326.726L265.081 322.795L265.918 318.887L266.875 315.004L267.850 311.125L268.826 307.246L269.801 303.366L270.776 299.487L271.751 295.608L272.727 291.728L273.702 287.849L274.677 283.970L275.652 280.091L276.628 276.211L277.603 272.332L278.619 268.465L279.765 264.638L281.039 260.850L282.400 257.089L283.761 253.328L285.123 249.566L286.484 245.805L287.845 242.044L289.207 238.283L290.677 234.570L292.323 230.936L294.143 227.379L296.028 223.851L297.913 220.323L299.799 216.795L301.684 213.267L303.569 209.739L305.455 206.212L307.340 202.684L309.225 199.156L311.111 195.628L312.996 192.100L314.881 188.572L316.766 185.045L318.784 181.602L320.989 178.282L323.382 175.083L325.830 171.920L328.279 168.756L330.727 165.593L333.176 162.430L335.624 159.267L338.072 156.104L340.521 152.941L342.969 149.778L345.462 146.656L348.126 143.692L350.960 140.884L353.919 138.193L356.878 135.501L359.837 132.810L362.796 130.119L365.755 127.427L368.714 124.736L371.673 122.044L374.634 119.355L377.702 116.800L380.878 114.380L384.160 112.093L387.441 109.807L390.723 107.520L394.005 105.233L397.287 102.946L400.569 100.659L403.851 98.373L407.133 96.086L410.414 93.799L413.696 91.512L416.990 89.245L420.382 87.144L423.872 85.208L427.450 83.418L431.027 81.629L434.604 79.839L438.182 78.050L441.759 76.260L445.337 74.471L448.914 72.681L452.491 70.892L456.069 69.102L459.646 67.313L463.289 65.692L467.021 64.295L470.840 63.122L474.681 62.006L478.522 60.889L482.363 59.773L486.204 58.656L490.045 57.540L493.886 56.423L497.727 55.307L501.568 54.190L505.409 53.074L509.250 51.957L513.091 50.841L516.952 49.836L520.863 49.098L524.822 48.629L528.809 48.317L532.797 48.004L536.785 47.692L540.773 47.380L544.761 47.067L548.747 46.802L552.730 46.793L556.707 47.041L560.681 47.498L564.655 47.955L568.629 48.412L572.603 48.869L576.576 49.326L580.550 49.783L584.524 50.240L588.498 50.697L592.472 51.153L596.446 51.610L600.362 52.328L604.220 53.310L608.021 54.558L611.820 55.809L615.619 57.060L619.418 58.312L623.217 59.563L627.017 60.815L630.802 62.101L634.513 63.566L638.149 65.211L641.727 67.001L645.304 68.791L648.881 70.581L652.458 72.371L656.035 74.160L659.578 76.007L663.005 78.043L666.317 80.268L669.547 82.627L672.778 84.986L676.008 87.346L679.238 89.705L682.469 92.064L685.699 94.423L688.929 96.782L692.159 99.141L695.390 101.500L698.620 103.859L701.850 106.218L704.932 108.746L707.857 111.453L710.625 114.340L713.384 117.235L716.144 120.131L718.903 123.027L721.663 125.923L724.422 128.819L727.181 131.714L729.941 134.610L732.700 137.506L735.460 140.402L738.219 143.298L740.978 146.194L743.738 149.089L746.359 152.089L748.738 155.273L750.872 158.640L752.901 162.087L754.931 165.534L756.960 168.981L758.989 172.429L760.880 175.642L762.634 178.621" stroke="#000000" stroke-width="65" fill="none" stroke-linecap="round" stroke-linejoin="round" />
 </g>
</svg>
