<?xml version="1.0" encoding="UTF-8"?>
<svg xmlns="http://www.w3.org/2000/svg" width="1024" height="1024" viewBox="0 0 1024 1024" preserveAspectRatio="xMidYMid meet">
 <rect width="1024" height="1024" fill="#ffffff" />
 <g id="centerline-shapes">
  <path id="path-1" d="M583.234 514.819L579.265 514.319L575.297 513.819L571.328 513.319L567.359 512.818L563.391 512.318L559.422 511.818L555.454 511.318L551.485 510.818L547.517 510.317L543.548 509.817L541.253 509.704L541.543 510.190L544.418 511.274L548.203 512.568L551.987 513.863L555.772 515.157L559.557 516.452L563.342 517.746L567.126 519.041L570.911 520.335L574.696 521.630L578.481 522.924L582.265 524.219L586.050 525.513L589.835 526.808L593.620 528.102L597.404 529.397L601.189 530.691L604.974 531.986L608.759 533.280L612.543 534.575L616.328 535.869L620.113 537.164L623.898 538.458L627.597 539.937L631.180 541.668L634.647 543.649L638.083 545.696L641.520 547.743L644.956 549.790L648.393 551.837L651.829 553.884L655.266 555.931L658.702 557.978L662.139 560.025L665.575 562.073L669.012 564.120L672.448 566.167L675.885 568.214L679.321 570.261L682.758 572.308L686.135 574.434L689.341 576.788L692.375 579.370L695.296 582.103L698.217 584.835L701.139 587.568L704.060 590.300L706.981 593.032L709.902 595.765L712.824 598.497L715.617 601.346L718.253 604.339L720.730 607.475L723.179 610.638L725.627 613.802L728.075 616.965L730.350 620.240L732.429 623.640L734.314 627.166L736.178 630.705L738.041 634.245L739.904 637.784L741.768 641.324L743.631 644.863L745.447 648.423L747.055 652.070L748.457 655.805L749.701 659.607L750.945 663.408L752.189 667.210L753.259 671.048L754.041 674.946L754.535 678.904L754.915 682.886L755.295 686.868L755.675 690.850L756.055 694.832L756.435 698.814L756.815 702.795L757.195 706.777L757.575 710.759L757.955 714.741L758.335 718.723L758.715 722.705L759.096 726.687L759.476 730.669L759.856 734.651L760.167 738.632L760.184 742.608L759.907 746.579L759.403 750.548L758.900 754.516L758.396 758.484L757.893 762.452L757.389 766.420L756.886 770.389L756.382 774.357L755.879 778.325L755.375 782.293L754.872 786.261L754.368 790.230L753.865 794.198L753.361 798.166L752.858 802.134L752.309 806.091L751.456 809.972L750.298 813.777L748.882 817.518L747.465 821.259L746.048 824.999L744.631 828.740L743.214 832.481L741.797 836.221L740.380 839.962L738.791 843.621L737.009 847.189L735.035 850.666L733.041 854.134L731.047 857.601L728.939 860.994L726.699 864.299L724.326 867.518L721.936 870.726L719.546 873.933L717.156 877.141L714.766 880.348L712.310 883.500L709.723 886.540L707.005 889.468L704.222 892.341L701.438 895.213L698.655 898.086L695.872 900.959L693.088 903.832L690.305 906.704L687.521 909.577L684.703 912.410L681.734 915.068L678.613 917.552L675.375 919.901L672.137 922.249L668.900 924.598L665.662 926.947L662.424 929.295L659.186 931.644L655.948 933.992L652.710 936.341L649.472 938.690L646.234 941.038L642.996 943.387L639.759 945.736L636.473 947.996L633.024 949.959L629.412 951.622L625.686 953.076L621.959 954.529L618.232 955.982L614.505 957.435L610.779 958.888L607.052 960.341L603.325 961.794L599.598 963.247L595.872 964.700L592.145 966.153L588.418 967.607L584.692 969.060L580.965 970.513L577.238 971.966L573.511 973.419L569.705 974.560L565.819 975.383L561.852 975.889L557.883 976.390L553.914 976.891L549.946 977.392L545.977 977.893L542.009 978.394L538.040 978.895L534.066 979.298L530.081 979.532L526.085 979.595L522.085 979.587L518.085 979.578L514.085 979.570L510.085 979.561L506.085 979.553L502.085 979.544L498.086 979.523L494.107 979.277L490.147 978.807L486.206 978.126L482.264 977.444L478.323 976.763L474.381 976.081L470.440 975.400L466.498 974.718L462.557 974.037L458.615 973.355L454.674 972.674L450.732 971.992L446.790 971.311L442.849 970.630L438.945 969.801L435.093 968.769L431.293 967.534L427.507 966.242L423.721 964.951L419.935 963.660L416.149 962.369L412.364 961.077L408.578 959.786L404.823 958.418L401.125 956.911L397.482 955.266L393.864 953.559L390.247 951.852L386.629 950.146L383.011 948.439L379.394 946.732L375.776 945.026L372.189 943.263L368.677 941.363L365.241 939.324L361.849 937.203L358.458 935.083L355.066 932.962L351.675 930.841L348.283 928.720L344.892 926.599L341.588 924.356L338.380 921.978L335.268 919.466L332.165 916.943L329.061 914.420L325.958 911.896L322.854 909.373L319.750 906.849L316.647 904.326L313.634 901.708L310.773 898.932L308.065 895.997L305.418 892.998L302.771 889.999L300.125 886.999L297.478 884.000L294.831 881.001L292.184 878.002L289.538 875.003L287.050 871.884L284.734 868.638L282.589 865.263L280.456 861.879L278.323 858.495L276.204 855.105L274.329 851.593L272.700 847.959L271.302 844.212L269.905 840.464L268.507 836.716L267.109 832.968L265.712 829.220L264.637 825.405L263.952 821.507L263.658 817.528L263.432 813.534L263.241 810.163L263.085 807.414" stroke="#000000" stroke-width="65" fill="none" stroke-linecap="round" stroke-linejoin="round" />
  <path id="path-2" d="M282.033 192.658L283.215 188.836L284.396 185.015L285.577 181.193L286.759 177.372L287.940 173.550L289.121 169.728L290.375 165.939L291.906 162.270L293.713 158.723L295.724 155.265L297.735 151.808L299.784 148.375L301.958 145.025L304.256 141.756L306.639 138.544L309.023 135.332L311.407 132.119L313.791 128.907L316.277 125.787L318.947 122.832L321.801 120.041L324.735 117.323L327.669 114.604L330.604 111.886L333.538 109.167L336.509 106.495L339.598 103.968L342.804 101.588L346.091 99.309L349.378 97.029L352.664 94.750L355.951 92.470L359.238 90.191L362.525 87.911L365.812 85.631L369.166 83.466L372.618 81.465L376.168 79.629L379.748 77.845L383.328 76.062L386.908 74.278L390.488 72.494L394.069 70.710L397.649 68.926L401.312 67.353L405.060 65.997L408.894 64.859L412.731 63.727L416.567 62.595L420.404 61.463L424.240 60.331L428.077 59.199L431.913 58.067L435.750 56.935L439.586 55.803L443.423 54.671L447.259 53.539L451.096 52.407L454.932 51.275L458.769 50.143L462.605 49.011L466.457 47.969L470.362 47.243L474.319 46.831L478.315 46.645L482.311 46.458L486.306 46.272L490.302 46.085L494.298 45.899L498.293 45.712L502.289 45.526L506.285 45.339L510.280 45.153L514.276 44.966L518.272 44.780L522.267 44.593L526.263 44.407L530.258 44.220L534.250 44.098L538.225 44.258L542.183 44.701L546.128 45.362L550.073 46.023L554.018 46.684L557.963 47.345L561.908 48.006L565.853 48.667L569.798 49.328L573.743 49.989L577.688 50.650L581.633 51.311L585.552 52.080L589.427 53.033L593.258 54.168L597.070 55.377L600.883 56.587L604.696 57.796L608.500 59.028L612.225 60.453L615.872 62.072L619.449 63.862L623.026 65.651L626.603 67.441L630.180 69.231L633.758 71.021L637.335 72.811L640.840 74.720L644.235 76.812L647.520 79.084L650.768 81.419L654.017 83.753L657.265 86.087L660.513 88.422L663.761 90.756L666.966 93.141L670.031 95.691L672.957 98.406L675.785 101.234L678.613 104.063L681.442 106.891L684.270 109.719L687.000 112.631L689.558 115.688L691.944 118.890L694.258 122.152L696.572 125.415L698.886 128.678L701.201 131.940L703.515 135.203L705.829 138.466L708.143 141.728L710.341 145.054L712.263 148.530L713.912 152.156L715.401 155.868L716.891 159.581L718.381 163.293L719.871 167.005L721.361 170.717L722.850 174.430L724.340 178.142L725.830 181.854L727.320 185.566L728.809 189.278L730.299 192.991L731.789 196.703L733.279 200.415L734.507 204.199L735.444 208.063L736.089 212.007L736.703 215.960L737.318 219.912L737.932 223.865L738.546 227.817L739.160 231.770L739.774 235.723L740.388 239.675L741.003 243.628L741.617 247.580L742.231 251.533L742.845 255.485L743.459 259.438L744.021 263.395L744.380 267.367L744.538 271.355L744.546 275.355L744.554 279.355L744.562 283.355L744.570 287.355L744.578 291.355L744.586 295.355L744.595 299.355L744.552 303.352L744.304 307.332L743.848 311.297L743.236 315.250L742.623 319.203L742.011 323.155L741.399 327.108L740.786 331.061L740.174 335.014L739.562 338.967L738.950 342.920L738.240 346.843L737.182 350.663L735.774 354.378L734.114 358.017L732.455 361.657L730.795 365.296L729.136 368.936L727.476 372.575L725.817 376.215L724.158 379.854L722.498 383.494L720.839 387.133L719.179 390.773L717.520 394.412L715.763 397.990L713.690 401.365L711.302 404.538L708.694 407.572L706.087 410.606L703.480 413.639L700.873 416.673L698.266 419.707L695.659 422.740L693.052 425.774L690.445 428.807L687.837 431.841L685.230 434.875L682.623 437.908L679.801 440.705L676.756 443.255L673.488 445.559L670.212 447.854L666.936 450.149L663.660 452.444L660.384 454.739L657.108 457.034L653.831 459.329L650.555 461.624L647.279 463.919L644.003 466.214L640.716 468.490L637.297 470.527L633.744 472.326L630.069 473.904L626.393 475.483L622.718 477.062L619.043 478.641L615.368 480.220L611.692 481.798L608.017 483.377L604.342 484.956L600.667 486.535L596.991 488.114L593.316 489.693L589.641 491.271L585.966 492.850L582.291 494.429L578.615 496.008L574.940 497.587L571.265 499.165L567.590 500.744L563.914 502.323L560.239 503.902L556.564 505.481L552.889 507.059L549.468 508.529L546.301 509.889" stroke="#000000" stroke-width="65" fill="none" stroke-linecap="round" stroke-linejoin="round" />
  <path id="path-3" d="M583.234 514.819L583.450 510.825L584.777 508.494L586.591 508.096L587.390 509.972L586.620 510.583L585.619 509.451L586.456 506.387L588.572 503.266L591.481 501.061L594.787 500.182L596.665 501.352L596.100 502.933L592.925 504.362L589.182 505.082L587.001 506.901L587.189 509.359L589.528 512.289L590.968 515.049L590.417 517.069L588.584 517.082L587.461 514.648L586.911 511.205L585.261 508.958L582.226 508.054L578.226 508.085L574.226 508.117L570.226 508.148L566.226 508.179L562.226 508.211L558.226 508.242L554.226 508.274L550.227 508.305L546.227 508.336L542.227 508.368L538.227 508.399L534.227 508.430L530.227 508.462L526.227 508.493L522.227 508.525L518.228 508.556L514.228 508.587L510.228 508.619L506.228 508.650L502.228 508.681L498.228 508.713L494.228 508.744L490.235 508.776L488.909 508.805L490.249 508.833L494.249 508.858L498.249 508.884L502.248 508.910L506.248 508.935L510.248 508.961L514.248 508.987L518.248 509.013L522.248 509.038L526.248 509.064L530.248 509.090L534.226 509.115L538.181 509.141" stroke="#000000" stroke-width="65" fill="none" stroke-linecap="round" stroke-linejoin="round" />
 </g>
</svg>
