<?xml version="1.0" encoding="UTF-8"?>
<svg xmlns="http://www.w3.org/2000/svg" width="1024" height="1024" viewBox="0 0 1024 1024" preserveAspectRatio="xMidYMid meet">
 <g id="centerline-shapes">
  <path id="path-1" d="M546.301 509.889L550.056 511.266L553.812 512.643L557.567 514.020L561.323 515.397L565.078 516.774L568.834 518.151L572.589 519.528L576.345 520.905L580.101 522.282L583.856 523.659L587.612 525.036L591.367 526.413L595.123 527.790L598.878 529.167L602.634 530.544L606.389 531.921L610.145 533.298L613.900 534.675L617.656 536.052L621.411 537.429L625.161 538.819L628.814 540.415L632.372 542.215L635.841 544.207L639.310 546.199L642.778 548.191L646.247 550.183L649.715 552.175L653.184 554.168L656.653 556.160L660.121 558.152L663.590 560.144L667.059 562.136L670.527 564.128L673.996 566.120L677.465 568.112L680.762 570.337L683.878 572.807L686.814 575.521L689.742 578.246L692.669 580.972L695.597 583.698L698.524 586.424L701.452 589.150L704.379 591.875L707.307 594.601L710.234 597.327L713.162 600.053L716.089 602.778L718.902 605.597L721.419 608.653L723.643 611.947L725.686 615.385L727.730 618.824L729.774 622.262L731.818 625.701L733.861 629.139L735.905 632.578L737.949 636.016L739.992 639.455L742.036 642.893L744.080 646.332L745.922 649.856L747.431 653.520L748.609 657.326L749.658 661.186L750.706 665.046L751.754 668.906L752.802 672.767L753.850 676.627L754.899 680.487L755.820 684.370L756.510 688.294L756.969 692.260L757.323 696.244L757.677 700.228L758.031 704.212L758.385 708.197L758.739 712.181L759.093 716.165L759.447 720.150L759.801 724.134L760.155 728.118L760.277 732.102L760.154 736.085L759.787 740.067L759.407 744.048L759.027 748.030L758.647 752.012L758.267 755.994L757.887 759.976L757.507 763.958L757.127 767.940L756.747 771.922L756.367 775.904L755.987 779.886L755.607 783.868L755.227 787.849L754.847 791.831L754.467 795.813L753.888 799.749L752.964 803.605L751.696 807.380L750.282 811.122L748.867 814.863L747.453 818.605L746.039 822.347L744.625 826.088L743.211 829.830L741.796 833.572L740.382 837.313L738.968 841.055L737.554 844.797L736.135 848.536L734.384 852.091L732.298 855.462L729.883 858.651L727.469 861.840L725.054 865.029L722.639 868.217L720.224 871.406L717.809 874.595L715.394 877.784L712.980 880.973L710.565 884.162L708.150 887.350L705.735 890.539L703.179 893.597L700.430 896.477L697.489 899.178L694.495 901.831L691.501 904.484L688.508 907.137L685.514 909.790L682.520 912.443L679.527 915.095L676.533 917.748L673.539 920.401L670.546 923.054L667.552 925.707L664.558 928.360L661.564 931.013L658.571 933.666L655.495 936.203L652.255 938.511L648.853 940.591L645.369 942.556L641.885 944.521L638.401 946.486L634.917 948.452L631.433 950.417L627.949 952.382L624.465 954.347L620.918 956.178L617.285 957.826L613.568 959.292L609.828 960.711L606.088 962.131L602.349 963.550L598.609 964.969L594.869 966.389L591.129 967.808L587.390 969.227L583.650 970.647L579.880 971.951L576.038 972.977L572.123 973.725L568.167 974.311L564.210 974.897L560.253 975.483L556.296 976.068L552.339 976.654L548.382 977.240L544.425 977.826L540.469 978.412L536.512 978.998L532.541 979.394L528.556 979.592L524.557 979.592L520.557 979.583L516.557 979.575L512.557 979.566L508.557 979.558L504.557 979.549L500.557 979.541L496.561 979.459L492.577 979.212L488.603 978.800L484.635 978.294L480.667 977.788L476.699 977.283L472.731 976.777L468.763 976.271L464.805 975.715L460.877 975.001L456.978 974.128L453.100 973.148L449.222 972.168L445.344 971.188L441.466 970.208L437.588 969.228L433.710 968.248L429.854 967.197L426.046 965.996L422.285 964.646L418.548 963.219L414.811 961.792L411.074 960.365L407.338 958.938L403.601 957.511L399.864 956.084L396.127 954.657L392.421 953.165L388.790 951.507L385.237 949.684L381.730 947.760L378.223 945.837L374.715 943.913L371.208 941.990L367.701 940.066L364.194 938.143L360.687 936.220L357.180 934.296L353.714 932.307L350.344 930.169L347.070 927.881L343.849 925.509L340.628 923.137L337.408 920.764L334.187 918.392L330.966 916.020L327.746 913.648L324.525 911.275L321.411 908.777L318.408 906.146L315.516 903.383L312.629 900.614L309.742 897.846L306.855 895.077L303.968 892.309L301.178 889.452L298.527 886.470L296.014 883.362L293.542 880.218L291.070 877.073L288.598 873.928L286.127 870.783L283.657 867.636L281.439 864.334L279.472 860.876L277.753 857.265L276.033 853.653L274.314 850.041L272.595 846.430L270.876 842.818L269.157 839.206L267.770 835.493L266.759 831.665L266.124 827.722L265.532 823.766L264.940 819.810L264.348 815.854L263.756 811.898L263.335 809.085L263.085 807.414" stroke="#000000" stroke-width="65" fill="none" stroke-linecap="round" stroke-linejoin="round" />
  <path id="path-2" d="M282.033 192.658L283.215 188.836L284.396 185.015L285.577 181.193L286.759 177.372L287.940 173.550L289.121 169.728L290.375 165.939L291.906 162.270L293.713 158.723L295.724 155.265L297.735 151.808L299.784 148.375L301.958 145.025L304.256 141.756L306.639 138.544L309.023 135.332L311.407 132.119L313.791 128.907L316.277 125.787L318.947 122.832L321.801 120.041L324.735 117.323L327.669 114.604L330.604 111.886L333.538 109.167L336.509 106.495L339.598 103.968L342.804 101.588L346.091 99.309L349.378 97.029L352.664 94.750L355.951 92.470L359.238 90.191L362.525 87.911L365.812 85.631L369.166 83.466L372.618 81.465L376.168 79.629L379.748 77.845L383.328 76.062L386.908 74.278L390.488 72.494L394.069 70.710L397.649 68.926L401.312 67.353L405.060 65.997L408.894 64.859L412.731 63.727L416.567 62.595L420.404 61.463L424.240 60.331L428.077 59.199L431.913 58.067L435.750 56.935L439.586 55.803L443.423 54.671L447.259 53.539L451.096 52.407L454.932 51.275L458.769 50.143L462.605 49.011L466.457 47.969L470.362 47.243L474.319 46.831L478.315 46.645L482.311 46.458L486.306 46.272L490.302 46.085L494.298 45.899L498.293 45.712L502.289 45.526L506.285 45.339L510.280 45.153L514.276 44.966L518.272 44.780L522.267 44.593L526.263 44.407L530.258 44.220L534.250 44.098L538.225 44.258L542.183 44.701L546.128 45.362L550.073 46.023L554.018 46.684L557.963 47.345L561.908 48.006L565.853 48.667L569.798 49.328L573.743 49.989L577.688 50.650L581.633 51.311L585.552 52.080L589.427 53.033L593.258 54.168L597.070 55.377L600.883 56.587L604.696 57.796L608.500 59.028L612.225 60.453L615.872 62.072L619.449 63.862L623.026 65.651L626.603 67.441L630.180 69.231L633.758 71.021L637.335 72.811L640.840 74.720L644.235 76.812L647.520 79.084L650.768 81.419L654.017 83.753L657.265 86.087L660.513 88.422L663.761 90.756L666.966 93.141L670.031 95.691L672.957 98.406L675.785 101.234L678.613 104.063L681.442 106.891L684.270 109.719L687.000 112.631L689.558 115.688L691.944 118.890L694.258 122.152L696.572 125.415L698.886 128.678L701.201 131.940L703.515 135.203L705.829 138.466L708.143 141.728L710.341 145.054L712.263 148.530L713.912 152.156L715.401 155.868L716.891 159.581L718.381 163.293L719.871 167.005L721.361 170.717L722.850 174.430L724.340 178.142L725.830 181.854L727.320 185.566L728.809 189.278L730.299 192.991L731.789 196.703L733.279 200.415L734.507 204.199L735.444 208.063L736.089 212.007L736.703 215.960L737.318 219.912L737.932 223.865L738.546 227.817L739.160 231.770L739.774 235.723L740.388 239.675L741.003 243.628L741.617 247.580L742.231 251.533L742.845 255.485L743.459 259.438L744.021 263.395L744.380 267.367L744.538 271.355L744.546 275.355L744.554 279.355L744.562 283.355L744.570 287.355L744.578 291.355L744.586 295.355L744.595 299.355L744.552 303.352L744.304 307.332L743.848 311.297L743.236 315.250L742.623 319.203L742.011 323.155L741.399 327.108L740.786 331.061L740.174 335.014L739.562 338.967L738.950 342.920L738.240 346.843L737.182 350.663L735.774 354.378L734.114 358.017L732.455 361.657L730.795 365.296L729.136 368.936L727.476 372.575L725.817 376.215L724.158 379.854L722.498 383.494L720.839 387.133L719.179 390.773L717.520 394.412L715.763 397.990L713.690 401.365L711.302 404.538L708.694 407.572L706.087 410.606L703.480 413.639L700.873 416.673L698.266 419.707L695.659 422.740L693.052 425.774L690.445 428.807L687.837 431.841L685.230 434.875L682.623 437.908L679.801 440.705L676.756 443.255L673.488 445.559L670.212 447.854L666.936 450.149L663.660 452.444L660.384 454.739L657.108 457.034L653.831 459.329L650.555 461.624L647.279 463.919L644.003 466.214L640.716 468.490L637.297 470.527L633.744 472.326L630.069 473.904L626.393 475.483L622.718 477.062L619.043 478.641L615.368 480.220L611.692 481.798L608.017 483.377L604.342 484.956L600.667 486.535L596.991 488.114L593.316 489.693L589.641 491.271L585.966 492.850L582.291 494.429L578.615 496.008L574.940 497.587L571.265 499.165L567.590 500.744L563.914 502.323L560.239 503.902L556.564 505.481L552.889 507.059L549.468 508.529L546.301 509.889" stroke="#000000" stroke-width="65" fill="none" stroke-linecap="round" stroke-linejoin="round" />
  <path id="path-3" d="M486.239 508.974L490.239 508.974L494.239 508.974L498.239 508.974L502.239 508.974L506.239 508.974L510.239 508.974L514.239 508.974L518.239 508.974L522.239 508.974L526.239 508.974L530.239 508.974L534.220 508.974L538.181 508.974" stroke="#000000" stroke-width="65" fill="none" stroke-linecap="round" stroke-linejoin="round" />
  <path id="path-4" d="M538.181 509.141L542.180 509.049L546.179 508.958L550.178 508.866L554.177 508.775L558.176 508.683L562.175 508.591L566.174 508.500L570.173 508.408L574.172 508.317L578.171 508.225L582.170 508.134L585.224 508.972L586.894 511.174L587.447 514.599L588.559 517.068L590.406 517.087L590.988 515.088L589.573 512.324L587.221 509.401L586.999 506.934L589.147 505.106L592.868 504.370L596.081 502.943L596.683 501.365L594.837 500.178L591.525 501.038L588.610 503.224L586.478 506.340L585.615 509.432L586.589 510.592L587.381 510.005L586.597 508.097L584.797 508.463L583.453 510.768L583.308 513.450L583.234 514.819" stroke="#000000" stroke-width="65" fill="none" stroke-linecap="round" stroke-linejoin="round" />
  <path id="path-5" d="M546.301 509.515L542.301 509.515L539.594 509.515L538.181 509.515" stroke="#000000" stroke-width="65" fill="none" stroke-linecap="round" stroke-linejoin="round" />
  <path id="path-6" d="M486.239 508.974L490.239 508.974L494.239 508.974L498.239 508.974L502.239 508.974L506.239 508.974L510.239 508.974L514.239 508.974L518.239 508.974L522.239 508.974L526.239 508.974L530.239 508.974L534.220 508.974L538.181 508.974" stroke="#000000" stroke-width="65" fill="none" stroke-linecap="round" stroke-linejoin="round" />
  <path id="path-7" d="M583.234 511.980L579.234 511.980L575.234 511.980L571.234 511.980L567.234 511.980L563.234 511.980L559.234 511.980L555.234 511.980L551.234 511.980L547.234 511.980L543.234 511.980L540.216 511.980L538.181 511.980" stroke="#000000" stroke-width="65" fill="none" stroke-linecap="round" stroke-linejoin="round" />
 </g>
</svg>
