<?xml version="1.0" encoding="UTF-8"?>
<svg xmlns="http://www.w3.org/2000/svg" width="1024" height="1024" viewBox="0 0 1024 1024" preserveAspectRatio="xMidYMid meet">
 <g id="centerline-shapes">
  <path id="path-1" d="M260.462 600.475L261.109 596.528L261.756 592.581L262.402 588.633L263.049 584.686L263.696 580.739L264.342 576.791L264.989 572.844L265.636 568.896L266.282 564.949L266.929 561.002L267.576 557.054L268.222 553.107L269.257 549.324L271.033 545.998L273.834 543.500L277.273 541.666L280.850 539.949L284.229 537.890L287.409 535.488L290.538 532.997L293.668 530.505L296.797 528.013L299.834 525.432L302.630 522.617L305.185 519.566L307.588 516.368L309.991 513.171L312.395 509.974L314.798 506.776L317.202 503.579L319.605 500.381L322.008 497.184L324.412 493.986L326.815 490.789L329.219 487.591L331.622 484.394L334.025 481.197L336.429 477.999L338.951 474.905L341.615 471.934L344.420 469.085L347.249 466.257L350.077 463.428L352.906 460.600L355.807 457.860L358.871 455.316L362.096 452.969L365.410 450.728L368.723 448.488L372.037 446.248L375.351 444.008L378.665 441.768L381.979 439.528L385.293 437.287L388.607 435.047L391.920 432.807L395.234 430.567L398.548 428.327L401.862 426.087L405.176 423.847L408.490 421.606L411.933 419.617L415.519 417.901L419.247 416.458L422.987 415.040L426.727 413.621L430.467 412.202L434.207 410.783L437.947 409.365L441.687 407.946L445.431 406.543L449.228 405.309L453.076 404.244L456.970 403.333L460.865 402.421L464.760 401.510L468.655 400.598L472.560 399.754L476.496 399.116L480.464 398.685L484.454 398.393L488.443 398.101L492.432 397.809L496.422 397.517L500.411 397.226L504.400 396.934L508.390 396.642L512.379 396.350L516.368 396.058L520.357 395.788L524.341 395.771L528.318 396.007L532.291 396.474L536.264 396.941L540.236 397.407L544.209 397.874L548.182 398.341L552.154 398.807L556.127 399.274L560.100 399.741L564.073 400.207L568.045 400.674L572.018 401.141L575.991 401.607L579.963 402.074L583.936 402.540L587.858 403.234L591.721 404.193L595.526 405.416L599.321 406.678L603.117 407.940L606.913 409.202L610.708 410.464L614.504 411.726L618.300 412.988L622.095 414.251L625.891 415.513L629.687 416.775L633.483 418.037L637.239 419.382L640.869 421.002L644.372 422.894L647.787 424.977L651.202 427.060L654.617 429.143L658.032 431.225L661.447 433.308L664.862 435.391L668.277 437.474L671.692 439.556L675.107 441.639L678.522 443.722L681.789 445.994L684.860 448.514L687.735 451.282L690.564 454.111L693.392 456.939L696.220 459.768L699.049 462.596L701.877 465.424L704.706 468.253L707.534 471.081L710.363 473.910L713.191 476.738L716.019 479.567L718.680 482.528L721.101 485.679L723.284 489.021L725.394 492.419L727.504 495.817L729.615 499.215L731.725 502.613L733.835 506.011L735.946 509.409L738.056 512.807L740.166 516.205L742.277 519.603L744.387 523.001L746.310 526.492L748.011 530.094L749.491 533.807L750.937 537.536L752.383 541.266L753.829 544.995L755.275 548.725L756.721 552.454L758.167 556.184L759.613 559.913L761.059 563.643L762.505 567.372L763.951 571.102L765.397 574.831L766.773 578.580L767.890 582.400L768.749 586.292L769.420 590.235L770.090 594.178L770.761 598.122L771.432 602.065L772.103 606.009L772.773 609.952L773.444 613.895L774.115 617.839L774.786 621.782L775.456 625.725L776.127 629.669L776.798 633.612L777.469 637.555L778.139 641.499L778.810 645.442L779.481 649.386L779.957 653.345L780.210 657.324L780.239 661.321L780.239 665.321L780.239 669.321L780.239 673.321L780.239 677.321L780.239 681.321L780.239 685.321L780.239 689.321L780.239 693.321L780.239 697.321L780.239 701.321L780.239 705.321L780.239 709.321L780.239 713.321L780.239 717.321L780.239 721.321L780.239 725.321L780.167 729.315L779.845 733.284L779.273 737.230L778.525 741.160L777.777 745.089L777.029 749.019L776.280 752.948L775.532 756.877L774.784 760.807L774.036 764.736L773.188 768.638L772.132 772.483L770.867 776.269L769.494 780.026L768.120 783.783L766.746 787.539L765.372 791.296L763.998 795.052L762.624 798.809L761.250 802.566L759.876 806.322L758.502 810.079L757.128 813.835L755.754 817.592L754.380 821.349L753.006 825.105L751.547 828.822L749.880 832.442L748.006 835.966L746.009 839.431L744.012 842.897L742.015 846.363L740.018 849.829L738.021 853.295L736.024 856.761L734.027 860.226L732.030 863.692L730.033 867.158L728.036 870.624L726.039 874.090L724.042 877.556L722.045 881.022L720.048 884.487L718.051 887.953L715.811 891.235L713.306 894.316L710.535 897.196L707.742 900.060L704.950 902.924L702.157 905.788L699.365 908.652L696.572 911.515L693.779 914.379L690.987 917.243L688.194 920.107L685.402 922.971L682.609 925.835L679.817 928.698L676.851 931.349L673.691 933.760L670.335 935.930L666.958 938.073L663.580 940.215L660.202 942.358L656.824 944.501L653.447 946.643L649.987 948.630L646.426 950.421L642.761 952.016L639.076 953.572L635.391 955.127L631.705 956.682L628.020 958.238L624.335 959.793L620.650 961.348L616.965 962.903L613.279 964.459L609.594 966.014L605.860 967.403L602.040 968.498L598.135 969.300L594.192 969.976L590.250 970.652L586.307 971.328L582.365 972.004L578.422 972.679L574.480 973.355L570.537 974.031L566.595 974.707L562.652 975.383L558.693 975.804L554.715 975.950L550.719 975.822L546.722 975.674L542.725 975.527L538.727 975.379L534.730 975.231L530.733 975.083L526.736 974.936L522.738 974.788L518.741 974.640L514.744 974.492L510.746 974.345L506.749 974.197L502.752 974.049L498.755 973.901L494.757 973.754L490.760 973.606L486.763 973.458L482.778 973.205L478.815 972.749L474.876 972.091L470.948 971.335L467.020 970.580L463.092 969.824L459.164 969.068L455.236 968.313L451.309 967.557L447.381 966.802L443.453 966.046L439.525 965.290L435.607 964.499L431.755 963.478L427.969 962.228L424.239 960.784L420.509 959.340L416.778 957.896L413.048 956.452L409.318 955.007L405.588 953.563L401.858 952.119L398.155 950.616L394.518 948.967L390.948 947.173L387.418 945.292L383.887 943.412L380.357 941.532L376.826 939.651L373.296 937.771L369.866 935.732L366.548 933.519L363.341 931.130L360.145 928.725L356.949 926.320L353.753 923.915L350.557 921.509L347.361 919.104L344.165 916.699L341.112 914.139L338.240 911.382L335.551 908.429L332.900 905.433L330.250 902.437L327.599 899.441L324.948 896.446L322.298 893.450L319.647 890.454L316.997 887.458L314.346 884.463L311.696 881.467L309.216 878.352L306.986 875.062L305.005 871.599L303.103 868.080L301.200 864.561L299.298 861.042L297.396 857.523L295.494 854.005L293.592 850.486L291.690 846.967L289.787 843.448L287.885 839.930L285.983 836.411L284.252 832.815L282.693 829.141L281.304 825.389L279.917 821.638L278.529 817.886L277.141 814.135L275.754 810.383L274.366 806.631L272.978 802.880L271.721 799.090L270.638 795.249L269.728 791.357L268.863 787.451L267.998 783.546L267.133 779.641L266.268 775.735L265.403 771.830L264.593 767.915L263.903 763.979L263.333 760.022L262.827 756.055L262.321 752.087L261.816 748.119L261.310 744.151L260.805 740.183L260.299 736.215L259.794 732.247L259.288 728.279L258.783 724.311L258.277 720.343L257.771 716.375L257.266 712.407L256.760 708.440L256.255 704.472L255.749 700.504L255.244 696.536L254.738 692.568L254.233 688.600L253.727 684.632L253.221 680.664L252.738 676.695L252.495 672.718L252.494 668.732L252.711 664.738L252.928 660.743L253.145 656.749L253.361 652.755L253.578 648.761L253.804 644.768L254.176 640.791L254.695 636.830L255.353 632.885L256.010 628.939L256.668 624.993L257.325 621.048L257.983 617.102L258.641 613.157L259.298 609.211L259.956 605.265L260.613 601.320L261.271 597.374L261.929 593.429L262.586 589.483L263.244 585.538L263.901 581.592L264.559 577.646L265.217 573.701L265.874 569.755L266.532 565.810L267.189 561.864L267.847 557.919L268.505 553.973L269.162 550.027L269.295 546.140L268.707 542.333L267.395 538.607L265.886 534.903L264.377 531.198L262.868 527.494L261.359 523.789L260.069 520.625L259.000 518.000" stroke="#000000" stroke-width="65" fill="none" stroke-linecap="round" stroke-linejoin="round" />
  <path id="path-2" d="M259.000 518.000L257.542 514.275L256.085 510.550L254.627 506.825L253.170 503.100L251.712 499.375L250.700 495.575L250.228 491.685L250.297 487.704L250.459 483.708L250.622 479.711L250.784 475.714L250.947 471.717L251.109 467.721L251.272 463.724L251.435 459.727L251.597 455.731L251.760 451.734L251.922 447.737L252.085 443.741L252.247 439.744L252.410 435.747L252.572 431.750L252.735 427.754L252.897 423.757L253.060 419.760L253.223 415.764L253.474 411.774L253.818 407.791L254.254 403.815L254.694 399.839L255.134 395.863L255.573 391.887L256.013 387.912L256.453 383.936L256.893 379.960L257.332 375.984L257.772 372.009L258.212 368.033L258.651 364.057L259.091 360.081L259.531 356.106L259.971 352.130L260.410 348.154L260.931 344.192L261.613 340.259L262.457 336.353L263.383 332.462L264.309 328.570L265.235 324.679L266.161 320.788L267.087 316.896L268.013 313.005L268.939 309.114L269.865 305.222L270.791 301.331L271.717 297.440L272.642 293.548L273.568 289.657L274.494 285.765L275.420 281.874L276.346 277.983L277.272 274.091L278.198 270.200L279.251 266.347L280.449 262.537L281.792 258.770L283.153 255.009L284.514 251.247L285.876 247.486L287.237 243.725L288.598 239.964L289.991 236.216L291.558 232.547L293.300 228.955L295.185 225.427L297.071 221.900L298.956 218.372L300.841 214.844L302.727 211.316L304.612 207.788L306.497 204.260L308.383 200.733L310.268 197.205L312.153 193.677L314.039 190.149L315.924 186.621L317.869 183.134L320.045 179.803L322.452 176.629L325.031 173.572L327.610 170.514L330.189 167.457L332.768 164.399L335.347 161.341L337.926 158.284L340.505 155.226L343.084 152.169L345.664 149.111L348.243 146.054L350.822 142.996L353.401 139.939L355.980 136.881L358.559 133.824L361.172 130.802L363.987 127.993L367.005 125.398L370.192 122.980L373.378 120.562L376.565 118.144L379.751 115.726L382.938 113.309L386.124 110.891L389.311 108.473L392.497 106.055L395.684 103.637L398.870 101.219L402.057 98.802L405.346 96.543L408.746 94.457L412.257 92.542L415.776 90.639L419.294 88.737L422.813 86.835L426.332 84.932L429.850 83.030L433.369 81.128L436.888 79.225L440.406 77.323L443.925 75.420L447.444 73.518L450.962 71.616L454.481 69.713L458.058 67.948L461.730 66.402L465.497 65.077L469.299 63.835L473.101 62.593L476.903 61.351L480.706 60.109L484.508 58.867L488.310 57.624L492.113 56.382L495.915 55.140L499.717 53.898L503.561 52.841L507.460 52.036L511.415 51.482L515.386 50.994L519.356 50.507L523.326 50.020L527.296 49.532L531.266 49.045L535.237 48.558L539.207 48.070L543.177 47.583L547.147 47.096L551.118 46.853L555.091 46.925L559.064 47.312L563.038 47.769L567.012 48.226L570.986 48.683L574.960 49.140L578.933 49.597L582.907 50.054L586.881 50.511L590.855 50.968L594.829 51.424L598.757 52.069L602.605 53.037L606.375 54.329L610.111 55.759L613.847 57.188L617.582 58.617L621.318 60.047L625.054 61.476L628.790 62.905L632.526 64.335L636.262 65.764L639.998 67.193L643.734 68.623L647.470 70.052L651.143 71.602L654.681 73.415L658.082 75.493L661.409 77.713L664.736 79.934L668.063 82.154L671.390 84.375L674.717 86.595L678.044 88.816L681.371 91.036L684.698 93.257L688.025 95.477L691.352 97.698L694.617 99.994L697.716 102.493L700.648 105.195L703.476 108.024L706.305 110.852L709.133 113.680L711.962 116.509L714.790 119.337L717.619 122.166L720.447 124.994L723.275 127.823L726.104 130.651L728.932 133.479L731.761 136.308L734.589 139.136L737.417 141.965L740.225 144.811L742.880 147.789L745.381 150.898L747.749 154.122L750.118 157.345L752.486 160.569L754.854 163.792L757.223 167.015L759.375 170.343L761.089 173.883L762.103 176.677L762.634 178.621" stroke="#000000" stroke-width="65" fill="none" stroke-linecap="round" stroke-linejoin="round" />
 </g>
</svg>
